<!DOCTYPE svg PUBLIC "-//W3C//DTD SVG 20010904//EN" "http://www.w3.org/TR/2001/REC-SVG-20010904/DTD/svg10.dtd">
<svg version="1.0" xmlns="http://www.w3.org/2000/svg" width="1200px" height="1200px" viewBox="0 0 12000 12000" preserveAspectRatio="xMidYMid meet">
<g id="layer101" fill="#1f2022" stroke="none">
 <path d="M8900 10399 c-19 -12 -37 -25 -40 -28 -3 -4 -20 -17 -38 -30 -35 -25 -39 -25 -161 -1 l-65 13 -57 -62 c-35 -37 -66 -61 -78 -61 -18 0 -56 28 -120 88 -38 36 -96 36 -163 -1 -49 -27 -82 -96 -98 -211 -8 -48 -20 -94 -27 -102 -9 -9 -37 -14 -78 -14 -81 0 -114 -25 -139 -104 -19 -61 -35 -75 -116 -101 -101 -32 -138 -55 -160 -100 -18 -36 -19 -48 -9 -103 11 -61 11 -61 -17 -85 -16 -14 -62 -35 -104 -47 -131 -40 -147 -52 -186 -135 -19 -41 -34 -82 -34 -93 0 -46 -83 -244 -133 -317 -22 -32 -203 -215 -249 -253 -30 -24 -36 -42 -15 -42 8 0 22 -10 33 -21 10 -12 39 -35 64 -52 24 -17 58 -44 75 -60 56 -54 110 -94 142 -105 28 -9 39 -6 109 34 43 24 81 48 84 52 3 4 34 27 70 51 36 25 67 48 70 51 3 3 46 37 95 75 50 38 99 78 110 88 11 10 53 44 94 75 41 31 99 80 130 108 31 28 103 89 161 137 58 48 144 122 192 164 290 259 404 354 547 455 36 26 71 51 76 55 36 32 216 146 320 203 202 111 351 212 382 259 40 60 21 123 -41 136 -76 16 -150 25 -281 35 -121 10 -160 17 -201 36 -76 36 -103 38 -144 13z"/>
 </g>
<g id="layer102" fill="#474d5e" stroke="none">
 <path d="M8925 10348 c-11 -6 -34 -23 -52 -39 -47 -40 -91 -52 -144 -38 -24 6 -62 13 -84 16 -40 5 -42 3 -80 -48 -68 -90 -118 -91 -216 -4 -47 42 -69 55 -93 55 -67 0 -99 -47 -116 -172 -23 -161 -34 -175 -156 -186 l-79 -7 -20 -64 c-11 -35 -30 -71 -42 -81 -12 -9 -60 -29 -106 -43 -48 -16 -96 -38 -112 -53 -27 -25 -28 -27 -21 -103 6 -70 4 -81 -15 -105 -26 -33 -72 -57 -164 -84 -38 -12 -81 -29 -94 -38 -27 -20 -60 -88 -61 -126 0 -82 -119 -341 -192 -419 -53 -57 -209 -194 -229 -201 -19 -7 0 -30 60 -71 24 -17 61 -46 80 -65 20 -18 52 -47 72 -63 l36 -29 99 66 c90 60 263 184 290 209 7 5 64 51 129 100 123 95 276 226 385 330 36 34 90 79 120 101 64 45 250 203 250 213 0 3 37 38 82 76 45 39 109 95 143 126 34 31 83 69 111 84 67 38 118 72 189 125 33 25 71 52 85 59 14 8 57 34 95 57 39 22 108 62 155 88 125 68 171 95 210 123 40 30 89 83 90 98 0 25 -130 52 -280 60 -144 7 -178 14 -226 41 -45 26 -69 29 -99 12z"/>
 </g>
<g id="layer103" fill="#f7f8f9" stroke="none">
 <path d="M8925 10348 c-11 -6 -34 -23 -52 -39 -47 -40 -91 -52 -144 -38 -24 6 -62 13 -84 16 -40 5 -42 3 -80 -48 -68 -90 -118 -91 -216 -4 -47 42 -69 55 -93 55 -67 0 -99 -47 -116 -172 -23 -161 -34 -175 -156 -186 l-79 -7 -20 -64 c-11 -35 -30 -71 -42 -81 -12 -9 -60 -29 -106 -43 -48 -16 -96 -38 -112 -53 -27 -25 -28 -27 -21 -103 6 -70 4 -81 -15 -105 -26 -33 -72 -57 -164 -84 -38 -12 -81 -29 -94 -38 -27 -20 -60 -88 -61 -126 0 -44 -44 -167 -99 -276 -46 -92 -63 -113 -159 -207 -122 -120 -125 -119 95 -15 122 58 123 59 166 127 72 110 106 187 113 250 6 50 12 64 48 101 59 63 86 73 195 79 l97 6 12 96 c6 53 16 110 22 127 7 19 49 65 112 120 56 49 132 118 169 152 47 44 79 66 106 72 35 8 41 7 74 -26 l36 -36 -14 54 c-21 75 -21 169 0 202 25 38 63 59 119 66 45 6 51 4 73 -22 29 -35 45 -87 45 -151 l0 -48 30 16 c17 9 46 39 64 68 39 60 172 192 207 205 63 24 62 24 98 -28 19 -28 37 -49 40 -48 3 2 35 18 71 37 36 19 118 58 183 86 l117 52 -110 11 c-87 9 -120 17 -154 37 -47 27 -70 30 -101 13z"/>
 </g>

</svg>