<!DOCTYPE svg PUBLIC "-//W3C//DTD SVG 20010904//EN" "http://www.w3.org/TR/2001/REC-SVG-20010904/DTD/svg10.dtd">
<svg version="1.0" xmlns="http://www.w3.org/2000/svg" width="1200px" height="1200px" viewBox="0 0 12000 12000" preserveAspectRatio="xMidYMid meet">
<g id="layer101" fill="#1f2027" stroke="none">
 <path d="M3300 10238 c-22 -12 -26 -22 -30 -77 -3 -35 -3 -110 0 -166 5 -97 7 -105 40 -151 19 -27 38 -50 42 -52 4 -2 8 -28 8 -57 0 -74 11 -97 67 -137 40 -29 52 -46 72 -99 13 -35 34 -79 45 -97 23 -36 101 -82 139 -82 14 0 45 -9 70 -20 42 -19 63 -41 93 -99 7 -14 54 -68 103 -122 80 -85 93 -104 106 -156 22 -88 33 -93 184 -93 l127 0 12 -121 c7 -66 19 -133 27 -148 25 -49 74 -64 228 -72 77 -4 142 -11 147 -15 4 -5 13 -63 20 -128 7 -68 18 -129 26 -142 29 -43 79 -58 224 -65 130 -6 136 -6 155 16 l21 22 -68 11 c-38 7 -106 12 -153 12 -73 0 -87 3 -110 23 -31 26 -44 77 -45 169 0 122 -29 144 -195 154 -162 9 -174 12 -196 47 -14 24 -19 50 -19 108 0 42 -7 98 -15 125 -21 68 -19 72 16 38 55 -51 108 -124 119 -163 20 -74 59 -95 218 -118 32 -4 48 -13 60 -32 9 -14 39 -53 68 -86 58 -67 74 -95 74 -123 0 -33 52 -80 96 -87 21 -3 62 -12 89 -18 73 -19 124 -8 187 40 29 22 72 52 96 67 23 14 42 31 42 36 0 6 20 20 45 32 25 12 45 27 45 32 0 6 -19 25 -42 41 -23 17 -60 46 -83 65 -23 19 -79 64 -124 99 -45 35 -108 89 -139 120 -31 31 -73 68 -92 81 -19 13 -41 30 -48 37 -8 7 -30 26 -50 41 -46 34 -75 58 -126 102 -23 20 -63 53 -91 75 -27 22 -57 46 -65 55 -8 8 -40 35 -70 60 -30 25 -62 51 -70 60 -8 8 -46 42 -85 74 -38 33 -176 165 -306 295 -285 285 -414 406 -462 435 -20 11 -55 35 -79 51 -38 27 -81 49 -143 74 -11 5 -33 14 -48 20 -47 19 -129 23 -157 9z m140 -563 c0 -8 -4 -15 -9 -15 -13 0 -22 16 -14 24 11 11 23 6 23 -9z m168 -99 c59 -39 62 -43 62 -82 0 -43 23 -77 80 -117 l25 -17 -45 6 c-75 10 -124 39 -148 87 -29 60 -62 145 -62 163 0 18 3 16 88 -40z m417 -440 c11 -4 40 -37 65 -74 43 -64 47 -67 85 -67 31 0 54 -10 102 -44 34 -25 60 -48 57 -53 -3 -4 -52 -8 -109 -8 l-105 0 -5 28 c-18 87 -27 102 -111 187 -79 81 -124 138 -124 158 0 5 28 -20 63 -56 34 -35 71 -67 82 -71z"/>
 </g>
<g id="layer102" fill="#f3f6f9" stroke="none">
 <path d="M3520 9610 c0 -13 37 -105 62 -156 11 -22 32 -48 46 -56 30 -17 130 -43 138 -35 3 2 -11 15 -31 27 -45 28 -64 56 -73 111 -7 38 -14 48 -61 81 -54 38 -81 47 -81 28z"/>
 <path d="M3880 9263 c0 -20 45 -77 124 -158 84 -85 93 -100 111 -187 l5 -28 94 0 c134 0 138 4 64 59 -50 37 -70 46 -102 46 -39 0 -43 3 -86 67 -25 37 -54 70 -65 74 -11 4 -48 36 -82 71 -35 36 -63 61 -63 56z"/>
 <path d="M4414 8870 c22 -75 26 -102 26 -170 0 -56 5 -83 19 -107 22 -35 34 -38 196 -47 166 -10 195 -32 195 -152 0 -88 17 -150 48 -174 20 -16 40 -20 108 -20 46 0 115 -5 153 -12 68 -12 69 -11 101 15 l32 27 -48 -1 c-27 -1 -67 3 -89 9 -22 6 -58 14 -79 17 -44 7 -96 54 -96 87 0 28 -16 56 -74 123 -29 33 -59 72 -68 86 -12 19 -28 28 -60 32 -159 23 -198 44 -218 118 -11 40 -65 113 -120 164 -33 30 -33 30 -26 5z"/>
 </g>

</svg>