<!DOCTYPE svg PUBLIC "-//W3C//DTD SVG 20010904//EN" "http://www.w3.org/TR/2001/REC-SVG-20010904/DTD/svg10.dtd">
<svg version="1.0" xmlns="http://www.w3.org/2000/svg" width="1200px" height="1200px" viewBox="0 0 12000 12000" preserveAspectRatio="xMidYMid meet">
<g id="layer101" fill="#338591" stroke="none">
<path d="M5470 11818 c-182 -18 -277 -29 -330 -38 -30 -5 -98 -17 -150 -25 -199 -33 -273 -48 -320 -64 -14 -5 -50 -14 -80 -20 -272 -58 -705 -201 -957 -317 -30 -13 -55 -24 -58 -24 -20 0 -383 -182 -493 -246 -40 -24 -76 -44 -79 -44 -2 0 -24 -13 -48 -30 -24 -16 -46 -30 -49 -30 -6 0 -124 -74 -142 -88 -5 -5 -21 -15 -35 -22 -13 -7 -26 -16 -29 -19 -3 -4 -29 -22 -58 -40 -30 -19 -59 -39 -65 -45 -7 -6 -41 -31 -77 -55 -36 -25 -67 -48 -70 -51 -3 -4 -30 -25 -60 -48 -221 -167 -506 -427 -699 -637 -155 -169 -253 -281 -296 -340 -17 -22 -32 -42 -35 -45 -3 -3 -17 -21 -30 -40 -14 -19 -30 -42 -37 -50 -85 -104 -148 -193 -243 -340 -175 -270 -319 -538 -478 -891 -106 -233 -258 -697 -321 -979 -12 -52 -26 -113 -31 -135 -5 -22 -14 -69 -20 -105 -6 -36 -15 -87 -20 -115 -21 -114 -30 -175 -40 -270 -6 -55 -16 -140 -22 -190 -15 -119 -15 -944 0 -1040 6 -38 16 -119 22 -180 11 -118 26 -223 40 -295 5 -25 14 -74 20 -110 30 -169 80 -375 125 -520 15 -47 31 -98 35 -115 13 -48 40 -138 50 -165 57 -162 126 -339 162 -420 11 -25 29 -65 39 -90 49 -112 225 -455 284 -554 36 -61 65 -114 65 -118 0 -4 5 -8 10 -8 6 0 10 -5 10 -10 0 -13 78 -134 200 -314 65 -95 258 -338 378 -476 224 -257 633 -641 812 -762 30 -21 96 -70 145 -109 93 -74 210 -155 330 -229 161 -99 246 -150 251 -150 3 0 18 -8 32 -19 56 -38 553 -281 577 -281 3 0 26 -9 51 -20 108 -50 465 -175 614 -216 350 -97 665 -156 1030 -194 58 -6 141 -16 184 -21 106 -12 650 -12 795 1 312 28 461 48 816 111 45 8 406 98 480 119 56 17 350 118 460 160 274 102 639 280 868 421 43 27 83 49 88 49 5 0 9 5 9 10 0 6 5 10 10 10 28 0 427 283 600 425 40 33 98 80 129 104 79 62 562 548 647 651 130 156 168 204 236 300 38 52 78 108 91 124 33 43 135 195 165 246 14 25 29 47 32 50 3 3 11 16 18 29 32 56 52 90 96 164 46 78 230 444 275 547 50 116 95 229 133 335 65 181 120 348 129 385 4 19 17 71 29 115 36 133 50 188 61 240 6 28 15 68 20 90 9 40 22 104 40 200 6 28 14 91 19 140 5 50 14 119 20 155 24 156 41 527 36 785 -6 304 -20 556 -36 640 -13 71 -27 155 -40 245 -9 69 -24 149 -39 215 -5 22 -14 63 -20 90 -5 28 -17 75 -25 105 -9 30 -27 102 -41 160 -36 148 -66 253 -102 360 -68 197 -92 263 -102 273 -6 6 -11 15 -11 20 0 5 -15 41 -33 81 -19 39 -51 111 -72 160 -118 275 -321 630 -552 966 -29 41 -166 225 -173 230 -3 3 -17 21 -30 40 -22 32 -86 109 -166 200 -17 19 -55 62 -84 95 -74 84 -294 301 -425 420 -60 55 -121 111 -135 125 -35 35 -155 130 -215 170 -52 35 -120 86 -143 108 -7 6 -17 12 -22 12 -5 0 -15 6 -22 13 -7 7 -67 48 -133 91 -66 44 -139 92 -163 107 -24 16 -46 29 -49 29 -4 0 -14 6 -22 14 -9 7 -47 31 -86 51 -38 21 -81 46 -95 55 -31 22 -206 111 -360 183 -351 166 -785 314 -1205 412 -261 61 -509 98 -835 125 -147 12 -837 11 -960 -2z"/>
</g>
<g id="layer102" fill="#87c3cb" stroke="none">
<path d="M5890 10180 c-185 -9 -342 -23 -450 -42 -120 -20 -304 -57 -365 -74 -33 -9 -94 -25 -135 -36 -189 -49 -332 -97 -447 -149 -24 -10 -45 -19 -48 -19 -2 0 -28 -11 -57 -24 -29 -13 -98 -43 -153 -67 -188 -81 -388 -190 -538 -294 -198 -137 -267 -197 -549 -476 -250 -250 -312 -317 -410 -449 -105 -142 -228 -322 -228 -335 0 -3 -5 -11 -10 -18 -56 -66 -253 -452 -309 -607 -7 -19 -17 -44 -22 -55 -60 -139 -134 -372 -178 -560 -63 -272 -88 -443 -112 -778 -19 -261 13 -701 71 -972 5 -22 14 -67 21 -100 43 -211 139 -540 190 -652 10 -24 19 -46 19 -50 0 -24 266 -557 303 -607 4 -6 46 -69 93 -141 106 -160 131 -194 319 -425 65 -81 359 -369 440 -433 199 -155 437 -327 454 -327 6 0 11 -4 11 -9 0 -5 14 -14 30 -21 17 -7 30 -16 30 -21 0 -4 9 -11 20 -14 11 -3 26 -12 32 -19 16 -15 76 -49 318 -176 204 -107 238 -124 355 -170 44 -17 94 -38 110 -45 37 -17 162 -59 241 -81 32 -8 73 -19 89 -24 223 -61 361 -78 745 -91 312 -10 815 2 880 21 19 5 53 10 75 10 88 1 332 53 420 91 66 28 113 45 220 80 66 22 134 46 150 54 17 7 66 28 110 45 85 34 120 49 255 112 150 70 214 102 278 140 34 21 64 38 66 38 13 0 370 250 446 313 8 7 35 28 60 47 63 48 403 391 533 536 141 159 243 300 401 559 37 61 71 117 76 125 5 8 17 31 26 50 50 106 74 159 74 165 0 3 20 49 45 102 25 52 45 97 45 100 0 3 6 19 14 36 40 90 171 490 191 582 3 17 10 48 16 70 9 38 14 70 39 235 6 41 15 100 21 130 33 190 39 792 9 1015 -26 194 -66 433 -80 475 -4 14 -18 63 -30 110 -21 81 -82 283 -99 325 -13 31 -28 67 -44 105 -8 19 -31 73 -50 120 -19 47 -49 115 -66 153 -17 37 -31 70 -31 73 0 21 -105 217 -165 309 -40 61 -101 155 -137 210 -35 55 -85 125 -109 155 -24 30 -71 91 -104 135 -50 67 -153 179 -345 374 -20 20 -80 75 -135 123 -327 287 -603 483 -820 583 -44 20 -88 41 -97 46 -10 5 -22 9 -27 9 -6 0 -47 18 -93 40 -105 50 -454 173 -598 209 -19 5 -62 16 -95 25 -117 30 -231 55 -295 65 -206 33 -358 49 -530 56 -74 3 -151 8 -170 9 -19 2 -114 0 -210 -4z"/>
</g>
<g id="layer103" fill="#ddfafc" stroke="none">
<path d="M5915 11313 c11 -148 9 -217 -7 -251 -13 -27 -59 -54 -110 -66 -26 -6 -27 -5 -33 51 -3 32 -10 94 -15 138 -5 44 -12 107 -15 141 -8 70 -12 79 -44 89 l-24 7 7 -103 c3 -57 10 -131 15 -164 6 -33 15 -107 21 -165 7 -58 16 -132 21 -165 5 -33 9 -95 9 -137 l0 -78 35 0 c90 0 197 39 234 86 47 60 17 187 -58 242 l-31 23 25 38 c37 55 48 142 35 260 -19 173 -19 171 -47 171 l-26 0 8 -117z m-49 -394 c102 -43 146 -161 78 -206 -14 -9 -49 -21 -79 -28 l-53 -13 -11 62 c-6 34 -14 97 -18 140 l-6 78 24 -7 c13 -4 43 -16 65 -26z"/>
<path d="M6238 11393 c-35 -42 -52 -132 -67 -373 -12 -172 -15 -271 -13 -342 2 -44 4 -48 27 -48 21 0 25 5 25 28 0 15 5 95 10 177 31 481 49 574 96 484 39 -76 58 -198 74 -479 8 -144 13 -177 27 -187 25 -19 31 -16 38 17 7 34 -9 318 -26 445 -22 167 -38 215 -91 265 -35 34 -77 39 -100 13z"/>
<path d="M5340 11378 c-20 -5 -48 -19 -63 -31 -53 -42 -52 -104 3 -387 51 -261 60 -291 104 -337 26 -28 37 -33 78 -33 59 0 124 25 131 51 7 26 0 28 -68 21 -120 -14 -117 -19 -170 244 -4 18 1 23 33 28 20 4 52 12 70 17 32 10 32 12 17 30 -13 13 -34 19 -79 21 l-61 3 -17 90 c-21 111 -23 188 -4 204 7 6 44 18 80 26 73 15 98 29 89 51 -6 16 -86 18 -143 2z"/>
<path d="M6550 11294 c0 -41 4 -117 9 -167 6 -51 15 -144 21 -207 21 -222 52 -300 120 -300 55 0 100 103 139 315 76 412 75 400 41 400 -27 0 -30 -9 -70 -199 l-12 -58 -71 7 c-107 10 -103 5 -111 147 -8 123 -12 138 -48 138 -16 0 -18 -10 -18 -76z m236 -277 c17 -17 -64 -337 -86 -337 -17 0 -43 91 -56 195 -22 172 -27 158 61 153 42 -3 78 -8 81 -11z"/>
<path d="M7187 11273 c-3 -21 -12 -78 -21 -128 -8 -49 -24 -151 -36 -225 -12 -74 -29 -160 -37 -190 -8 -30 -17 -66 -20 -79 -5 -22 -9 -23 -57 -17 -28 4 -66 9 -83 12 -30 6 -33 4 -33 -20 0 -22 7 -27 53 -41 87 -25 236 -54 285 -54 25 -1 32 3 32 19 0 24 -26 38 -85 47 -25 3 -48 9 -51 14 -2 4 5 45 16 91 21 88 100 547 100 586 0 18 -6 22 -29 22 -25 0 -29 -4 -34 -37z"/>
<path d="M4853 11279 c-49 -10 -53 -13 -53 -39 l0 -29 103 6 c87 5 109 3 141 -12 82 -39 120 -159 77 -243 -11 -22 -48 -64 -81 -94 -80 -69 -100 -103 -100 -164 0 -112 115 -208 208 -175 48 18 62 29 62 53 0 19 -5 20 -70 13 l-71 -7 -34 37 c-28 29 -35 44 -35 77 0 38 6 47 79 118 97 95 121 138 121 220 0 175 -148 277 -347 239z"/>
<path d="M7527 11181 c-18 -45 -40 -127 -57 -206 -16 -79 -33 -156 -65 -289 -35 -148 -40 -191 -25 -201 17 -11 60 39 60 69 0 13 4 36 9 52 5 16 14 54 20 84 13 61 24 112 40 180 5 25 19 88 31 140 12 52 25 106 30 120 22 64 21 77 -5 82 -20 4 -26 -1 -38 -31z"/>
<path d="M4476 11158 c-18 -26 -20 -76 -6 -145 42 -200 94 -502 88 -509 -6 -6 -61 106 -98 201 -18 44 -40 98 -50 120 -9 22 -37 85 -60 140 -49 114 -47 110 -79 120 -23 7 -24 5 -18 -27 5 -33 177 -447 238 -574 36 -74 68 -107 101 -102 20 3 23 9 26 58 5 65 -22 259 -62 450 -18 87 -31 200 -23 200 27 0 206 -400 258 -577 6 -21 21 -39 41 -49 l31 -16 -6 48 c-3 27 -15 72 -25 99 -11 28 -35 88 -53 135 -64 170 -173 383 -213 418 -43 38 -69 41 -90 10z"/>
<path d="M7724 11097 c-62 -33 -78 -48 -101 -92 -36 -67 -44 -105 -50 -235 -5 -109 -3 -136 16 -210 27 -103 53 -148 97 -166 30 -12 39 -12 87 6 89 34 137 99 179 247 16 57 22 107 22 183 1 124 -16 186 -70 249 -33 38 -39 41 -87 41 -34 0 -66 -8 -93 -23z m138 -64 c42 -47 53 -89 52 -198 -2 -169 -52 -310 -126 -358 -88 -57 -124 -22 -147 140 -23 152 -6 312 38 373 51 71 138 91 183 43z"/>
<path d="M8130 10957 c-46 -103 -194 -534 -203 -589 -9 -57 25 -83 74 -57 18 9 71 87 228 333 31 48 74 111 96 140 32 41 41 47 43 31 4 -27 -60 -219 -167 -505 -27 -71 -27 -100 -1 -100 23 0 69 90 115 225 15 44 48 138 72 210 32 94 44 145 44 188 1 66 -7 80 -46 80 -40 0 -96 -61 -182 -198 -109 -172 -183 -284 -194 -290 -10 -7 72 237 121 360 57 142 68 206 37 213 -13 3 -23 -9 -37 -41z"/>
<path d="M3918 10945 c-51 -35 -73 -95 -64 -180 7 -67 10 -78 53 -175 56 -126 168 -274 242 -322 76 -48 151 -35 186 32 34 66 7 239 -59 368 -68 134 -143 234 -205 274 -57 35 -104 37 -153 3z m161 -92 c117 -118 211 -326 211 -469 0 -65 -11 -84 -49 -84 -75 0 -176 112 -269 300 -53 108 -57 120 -57 187 0 62 3 75 24 97 40 43 73 35 140 -31z"/>
<path d="M3583 10812 c-43 -13 -112 -71 -140 -119 -24 -41 -28 -58 -28 -123 1 -63 6 -86 33 -143 70 -151 182 -288 283 -345 45 -26 68 -32 113 -32 95 0 176 47 176 102 0 15 -2 28 -5 28 -3 0 -28 -14 -56 -31 -119 -74 -226 -33 -351 134 -109 146 -153 266 -128 343 19 58 87 119 148 134 45 10 52 15 52 36 0 21 -4 24 -37 23 -21 -1 -48 -4 -60 -7z"/>
<path d="M2393 10153 c-63 -41 -120 -103 -129 -138 -3 -14 -1 -39 6 -55 10 -25 145 -154 336 -321 27 -24 81 -71 118 -104 93 -82 104 -87 143 -68 70 33 143 114 143 157 0 25 -47 2 -102 -50 -66 -61 -66 -61 -176 32 -128 109 -146 129 -130 145 19 19 48 62 48 70 0 4 -8 10 -17 13 -10 4 -30 -5 -55 -24 l-39 -32 -92 84 c-103 93 -126 118 -127 134 0 14 126 134 140 134 14 0 12 22 -3 41 -11 15 -18 13 -64 -18z"/>
<path d="M9570 9979 c0 -6 18 -41 40 -78 34 -57 40 -76 40 -124 0 -66 -10 -87 -68 -144 -51 -51 -92 -61 -182 -43 -152 29 -180 24 -220 -43 -45 -73 -2 -207 67 -207 30 0 30 23 -2 75 -29 47 -31 65 -10 105 18 35 30 36 135 14 143 -30 232 2 301 108 35 54 39 68 39 123 0 78 -23 146 -65 190 -31 33 -75 47 -75 24z"/>
<path d="M2020 9763 c0 -53 40 -115 228 -348 85 -105 131 -174 157 -239 l16 -39 -68 49 c-121 85 -165 119 -332 253 -164 131 -211 156 -211 111 0 -26 290 -259 523 -419 89 -61 130 -74 141 -45 25 64 -35 181 -199 389 -146 187 -192 255 -169 255 18 0 136 -91 310 -241 110 -94 211 -177 226 -185 25 -13 28 -12 38 7 7 11 10 22 8 23 -2 1 -70 60 -153 132 -254 219 -268 230 -344 283 -64 44 -81 51 -123 51 l-48 0 0 -37z"/>
<path d="M9770 9628 c-123 -59 -319 -347 -320 -470 0 -63 76 -115 154 -105 173 23 406 280 408 452 2 121 -118 181 -242 123z m150 -48 c54 -29 41 -131 -30 -237 -86 -129 -200 -215 -304 -229 -41 -6 -51 -4 -62 11 -22 30 -16 63 26 151 69 142 161 251 255 303 25 13 90 14 115 1z"/>
<path d="M1587 9353 c-19 -18 49 -77 302 -266 157 -118 305 -226 328 -242 72 -47 102 -10 36 44 -21 17 -164 124 -319 239 -256 190 -333 240 -347 225z"/>
<path d="M10105 9288 c-77 -28 -237 -174 -303 -277 -54 -82 -85 -166 -78 -206 8 -40 59 -101 92 -109 14 -4 28 -5 31 -2 2 2 -7 27 -21 55 -54 106 -19 201 133 351 104 103 164 140 231 140 35 0 47 -6 84 -45 43 -44 76 -58 76 -32 0 6 -9 31 -19 54 -33 71 -135 103 -226 71z"/>
<path d="M1393 9051 c-14 -22 2 -33 152 -109 108 -54 164 -97 181 -138 18 -43 12 -69 -38 -154 -44 -78 -46 -90 -15 -90 16 0 45 22 88 66 78 79 103 94 167 94 62 0 92 -28 99 -94 4 -36 0 -57 -25 -108 -33 -68 -63 -108 -81 -108 -16 0 -146 62 -434 206 -247 124 -297 141 -297 106 0 -22 89 -75 285 -168 77 -36 213 -101 302 -145 88 -43 163 -79 166 -79 8 0 93 122 114 165 49 97 42 175 -21 241 -39 40 -47 44 -92 44 -27 0 -70 -7 -96 -14 l-46 -14 -11 44 c-19 76 -74 124 -232 204 -75 38 -141 70 -146 70 -4 0 -14 -9 -20 -19z"/>
<path d="M10374 8998 c-144 -97 -488 -394 -492 -426 -6 -43 37 -24 130 56 139 118 223 187 336 274 79 62 102 85 100 101 -5 32 -21 30 -74 -5z"/>
<path d="M10430 8850 c-86 -46 -427 -341 -446 -385 -17 -41 -5 -89 39 -162 26 -44 36 -53 59 -53 15 0 28 2 28 5 0 3 -16 39 -35 81 -19 41 -35 86 -35 98 0 16 27 45 97 104 54 45 100 82 103 82 3 -1 19 -19 35 -40 36 -46 43 -48 51 -14 4 17 0 39 -14 64 l-20 39 41 34 c153 124 174 130 230 68 19 -22 41 -49 47 -61 7 -14 19 -20 33 -18 45 6 4 98 -66 149 -47 34 -95 37 -147 9z"/>
<path d="M1085 8520 c-10 -17 35 -53 163 -129 74 -44 122 -78 122 -88 0 -15 -68 -163 -87 -191 -10 -13 -37 -7 -166 41 -38 14 -93 29 -123 33 -53 6 -54 6 -54 -18 0 -23 8 -28 88 -51 48 -14 139 -44 204 -66 142 -50 339 -101 387 -101 100 0 151 27 151 81 0 84 -116 186 -429 373 -219 131 -241 141 -256 116z m475 -323 c79 -57 119 -97 141 -139 l19 -38 -26 -6 c-44 -11 -159 3 -252 31 -48 15 -90 30 -95 34 -4 4 13 51 38 105 l46 97 37 -22 c20 -12 62 -40 92 -62z"/>
<path d="M10669 8472 c-14 -9 -94 -71 -178 -137 -196 -153 -279 -215 -289 -215 -4 0 -22 24 -40 54 -26 43 -37 53 -53 49 -28 -8 -21 -32 54 -183 49 -99 67 -126 85 -128 29 -4 29 24 2 80 -11 23 -20 47 -20 54 0 6 43 44 95 83 53 40 133 102 178 138 45 36 121 95 170 131 70 52 85 67 76 78 -15 18 -48 17 -80 -4z"/>
<path d="M10888 8176 c-26 -20 -118 -142 -227 -301 -27 -39 -55 -76 -63 -82 -11 -9 -37 -7 -118 12 -58 13 -126 26 -152 30 -42 6 -47 5 -53 -15 -4 -12 -3 -26 2 -30 4 -5 59 -18 122 -30 170 -33 162 -23 95 -115 -72 -101 -92 -141 -77 -156 19 -19 40 -3 87 63 25 35 95 133 155 218 61 85 146 205 190 265 44 61 80 117 80 125 1 33 -13 39 -41 16z"/>
<path d="M817 7953 c-14 -14 -6 -33 21 -47 15 -7 140 -51 277 -96 313 -103 371 -125 415 -152 l35 -21 -35 -15 c-41 -17 -91 -19 -217 -7 -65 5 -93 5 -93 -3 0 -28 18 -45 91 -84 101 -53 156 -97 137 -109 -19 -13 -128 0 -238 26 -89 22 -143 37 -315 87 -84 24 -142 37 -172 38 -16 0 -20 -4 -16 -20 6 -24 25 -36 79 -49 22 -5 102 -28 179 -50 252 -74 343 -93 446 -95 105 -1 129 8 129 51 0 17 -18 42 -55 78 l-56 53 43 7 c101 15 138 41 138 95 0 57 -71 97 -279 160 -150 46 -209 65 -359 119 -113 41 -143 47 -155 34z"/>
<path d="M891 5924 c-58 -49 -58 -129 0 -183 31 -29 115 -30 151 -1 57 44 61 129 8 182 -39 39 -114 40 -159 2z"/>
<path d="M10957 5926 c-38 -35 -50 -89 -31 -136 20 -51 52 -70 112 -70 40 0 54 5 76 26 50 51 52 124 6 174 -24 26 -35 30 -83 30 -43 0 -59 -5 -80 -24z"/>
<path d="M2160 3091 c-135 -52 -377 -268 -437 -392 -28 -56 -33 -78 -33 -137 0 -39 5 -84 12 -99 44 -103 202 -207 255 -168 24 18 6 37 -55 60 -56 21 -118 76 -138 124 -25 59 -18 135 18 203 36 68 155 194 242 258 150 109 239 133 327 87 58 -31 81 -72 87 -158 4 -64 7 -70 26 -67 17 2 23 13 30 53 12 76 -6 130 -63 185 -71 70 -172 89 -271 51z"/>
<path d="M9530 3043 c0 -28 1 -29 128 -60 70 -17 170 -42 222 -54 52 -12 101 -28 108 -34 15 -13 73 -240 92 -362 12 -76 16 -83 37 -83 16 0 24 7 29 24 5 23 -16 141 -58 319 -11 48 -19 89 -17 91 4 4 36 -1 214 -34 144 -26 155 -26 155 4 0 20 -8 25 -62 39 -35 9 -108 23 -163 32 -55 9 -134 23 -175 31 -78 15 -109 22 -320 73 -204 48 -190 47 -190 14z"/>
<path d="M9240 2765 c0 -27 19 -50 81 -102 25 -21 92 -78 149 -128 57 -49 124 -108 150 -130 180 -151 210 -178 210 -185 0 -4 -18 -30 -40 -58 -41 -52 -47 -66 -30 -77 22 -14 52 10 137 113 109 131 125 155 117 176 -10 25 -22 20 -80 -39 -31 -30 -59 -55 -64 -55 -10 0 -85 62 -330 275 -276 240 -300 257 -300 210z"/>
<path d="M2634 2762 c-25 -8 -56 -44 -218 -246 -143 -177 -230 -304 -257 -377 -46 -121 -3 -229 91 -229 105 1 254 127 534 454 127 148 157 196 122 196 -31 0 -49 -16 -140 -124 -52 -61 -116 -135 -143 -164 l-48 -54 -82 85 c-46 46 -83 89 -83 95 0 13 86 127 152 202 57 65 94 117 103 148 7 23 4 24 -31 14z m-185 -496 c55 -56 82 -89 78 -99 -8 -22 -165 -154 -209 -178 -116 -60 -157 31 -80 179 35 69 111 182 122 182 3 0 43 -38 89 -84z"/>
<path d="M8990 2564 c0 -17 32 -59 109 -140 47 -49 160 -173 251 -274 219 -245 234 -260 258 -260 28 0 19 33 -27 90 -77 97 -508 568 -531 580 -20 11 -60 14 -60 4z"/>
<path d="M2997 2377 c-39 -41 -192 -224 -310 -372 -127 -158 -176 -275 -147 -346 18 -42 50 -47 120 -16 l58 25 -5 -73 c-6 -72 -5 -74 25 -104 39 -39 58 -39 118 2 52 34 136 149 369 504 128 195 131 201 111 221 -24 24 -6 48 -262 -336 -71 -106 -133 -201 -139 -210 -44 -75 -116 -147 -146 -147 -27 0 -16 103 19 178 62 132 27 166 -76 72 -48 -42 -111 -85 -127 -85 -19 0 0 82 32 142 22 41 172 229 365 460 21 25 44 61 53 81 15 36 15 37 -6 37 -11 0 -35 -15 -52 -33z"/>
<path d="M8802 2314 c-98 -26 -192 -89 -192 -130 0 -22 3 -24 23 -18 12 3 51 24 87 45 86 50 146 65 197 49 63 -20 100 -48 133 -100 64 -100 61 -157 -17 -274 -82 -123 -91 -191 -36 -256 89 -106 256 -89 340 36 l24 34 -23 9 c-19 7 -30 2 -60 -25 -77 -69 -147 -83 -209 -41 -30 20 -34 29 -37 72 -3 50 18 104 59 150 10 11 30 46 45 79 22 48 25 67 21 108 -16 130 -113 241 -235 267 -62 13 -54 13 -120 -5z"/>
<path d="M8430 2106 c0 -26 15 -56 57 -118 119 -174 141 -249 86 -300 -36 -32 -104 -78 -118 -78 -6 0 -52 69 -102 153 -50 83 -104 167 -120 185 -27 33 -29 33 -45 15 -16 -17 -8 -32 144 -283 88 -146 188 -312 222 -369 33 -57 69 -109 78 -115 14 -9 31 -4 82 23 130 68 176 127 176 226 0 67 -25 121 -75 163 -38 30 -94 52 -138 52 l-25 0 5 74 c6 73 5 76 -35 148 -62 114 -137 222 -166 241 l-26 17 0 -34z m328 -526 c67 -41 93 -140 57 -211 -18 -33 -113 -99 -144 -99 -14 0 -34 21 -64 68 -71 110 -129 213 -123 219 17 17 120 42 176 42 48 1 73 -4 98 -19z"/>
<path d="M3442 2063 c-17 -25 -376 -669 -410 -736 -14 -27 -13 -30 19 -63 47 -48 105 -74 168 -74 63 0 101 18 138 66 24 33 27 44 26 109 0 40 -4 81 -7 93 -6 19 -3 20 52 20 74 0 125 25 180 87 66 75 86 127 85 221 0 72 -4 90 -34 150 -24 49 -49 80 -87 111 -64 52 -101 57 -130 16z m106 -75 c67 -64 85 -109 86 -203 1 -69 -2 -86 -26 -125 -52 -88 -129 -138 -196 -125 -27 5 -121 56 -150 80 -3 2 186 348 213 388 9 15 20 27 24 27 3 0 26 -19 49 -42z m-271 -476 c38 -55 59 -134 49 -185 -14 -73 -101 -99 -191 -55 -25 12 -45 26 -45 30 0 22 136 258 148 258 4 0 21 -21 39 -48z"/>
<path d="M3826 1878 c-22 -38 -51 -97 -171 -353 -18 -38 -60 -128 -94 -199 -97 -203 -121 -263 -115 -280 3 -9 39 -32 79 -52 140 -69 261 -54 323 39 23 35 27 51 27 116 0 61 -5 87 -27 133 l-26 56 51 13 c41 10 62 23 102 64 51 52 119 175 156 283 26 74 25 92 -5 92 -20 0 -28 -12 -55 -83 -63 -164 -142 -279 -199 -294 -43 -10 -146 13 -180 42 -1 1 43 96 98 211 55 115 99 218 98 229 -5 37 -35 29 -62 -17z m-101 -532 c66 -65 95 -127 95 -203 0 -51 -3 -58 -40 -96 l-40 -40 -68 5 c-61 5 -142 33 -155 56 -6 8 25 83 92 225 22 49 41 93 41 98 0 20 22 7 75 -45z"/>
<path d="M7920 1862 c-30 -15 -74 -46 -99 -69 -71 -68 -75 -56 174 -533 120 -231 144 -266 191 -286 28 -12 38 -12 72 0 100 36 172 85 172 118 0 27 -27 22 -99 -17 -36 -19 -79 -37 -97 -41 -28 -5 -35 -1 -60 30 -33 41 -134 231 -134 252 0 7 23 25 50 39 39 20 50 31 50 49 0 22 -3 23 -37 16 -21 -4 -51 -13 -67 -19 -23 -9 -32 -9 -42 1 -18 20 -130 238 -144 281 -11 35 -10 41 11 64 13 14 57 43 97 65 119 66 85 111 -38 50z"/>
<path d="M5159 1703 c-6 -15 -18 -77 -27 -138 -9 -60 -17 -111 -18 -113 -1 -2 -19 8 -39 23 -65 44 -144 30 -199 -35 -54 -65 -126 -393 -126 -580 0 -145 21 -216 79 -276 58 -60 190 -48 191 16 0 12 -13 14 -69 12 -64 -3 -70 -2 -89 23 -64 81 -69 282 -13 530 5 22 12 56 16 75 9 46 33 117 47 143 33 62 104 74 141 25 19 -25 21 -41 19 -143 -1 -72 2 -115 9 -115 5 0 20 10 32 23 17 16 26 43 35 107 7 47 17 110 22 140 26 152 31 190 33 245 2 49 -1 60 -15 63 -12 2 -22 -6 -29 -25z"/>
<path d="M4247 1708 c-18 -14 -38 -65 -147 -383 -38 -110 -89 -258 -114 -329 -51 -143 -56 -176 -27 -176 28 0 35 13 89 170 28 80 83 237 122 350 132 378 124 350 108 366 -11 12 -17 12 -31 2z"/>
<path d="M4442 1657 c-27 -45 -85 -219 -151 -457 -12 -41 -26 -91 -31 -110 -93 -330 -93 -330 -74 -352 31 -34 73 -49 148 -55 98 -7 144 7 210 68 70 64 129 179 152 294 22 113 23 314 1 386 -21 70 -93 169 -153 212 -70 50 -80 51 -102 14z m123 -114 c75 -91 90 -142 88 -298 -1 -146 -21 -246 -68 -342 -43 -86 -105 -146 -171 -162 -37 -10 -57 -9 -112 5 -37 9 -68 17 -69 18 -1 1 3 19 42 161 9 33 22 83 30 110 23 87 75 267 105 360 16 50 32 108 35 130 9 48 30 85 49 85 8 0 40 -30 71 -67z"/>
<path d="M7507 1663 c-10 -10 -8 -157 2 -205 6 -24 15 -68 21 -98 6 -30 15 -73 20 -95 28 -120 110 -494 110 -499 0 -3 11 -6 25 -6 22 0 25 4 25 34 0 19 -34 186 -75 373 -71 320 -88 432 -65 418 27 -17 221 -315 344 -530 55 -95 100 -155 118 -155 4 0 8 14 8 31 0 31 -61 143 -208 379 -158 254 -208 322 -253 346 -30 15 -61 18 -72 7z"/>
<path d="M7225 1550 c-7 -11 4 -79 15 -95 3 -5 12 -30 19 -55 7 -25 17 -53 22 -62 5 -10 9 -23 9 -29 0 -7 32 -109 71 -228 39 -119 77 -241 85 -271 21 -82 34 -108 55 -113 10 -3 21 -2 24 2 5 8 -7 84 -23 141 -11 42 -131 417 -142 445 -14 36 -50 160 -50 173 0 23 -39 89 -55 96 -22 8 -23 8 -30 -4z"/>
<path d="M6974 1475 c-15 -23 -16 -47 -10 -188 16 -409 18 -537 12 -580 -12 -76 -19 -67 -57 73 -10 38 -33 151 -49 240 -72 400 -82 440 -111 440 -11 0 -22 -6 -25 -13 -3 -8 7 -72 21 -143 14 -71 34 -178 46 -239 11 -60 24 -128 29 -150 5 -22 14 -65 20 -95 34 -160 77 -250 119 -250 23 0 45 26 60 69 14 43 14 285 0 496 -6 88 -9 187 -7 220 l3 60 32 -95 c38 -112 114 -373 150 -515 27 -107 45 -145 68 -145 21 0 19 55 -6 148 -52 197 -161 564 -185 625 -25 64 -27 67 -60 67 -25 0 -38 -6 -50 -25z"/>
<path d="M5312 1429 c-47 -14 -57 -45 -76 -249 -9 -96 -21 -213 -26 -260 -6 -47 -13 -143 -16 -215 -6 -145 1 -170 51 -194 32 -16 158 -40 213 -40 29 -1 32 2 32 29 0 26 -4 30 -27 30 -31 0 -194 27 -200 33 -12 13 -14 123 -3 236 l13 131 93 -6 94 -7 0 26 c0 22 -5 27 -37 32 -21 3 -61 10 -90 16 l-51 10 4 57 c9 102 25 256 31 290 l5 32 139 0 139 0 0 24 c0 18 -7 25 -31 30 -47 9 -219 6 -257 -5z"/>
<path d="M6575 1415 c-3 -8 -7 -22 -10 -30 -4 -13 -10 -12 -42 5 -21 11 -48 20 -61 20 -57 0 -137 -54 -170 -115 -21 -38 -20 -237 2 -375 8 -52 24 -155 36 -228 24 -156 40 -202 69 -202 27 0 27 22 2 160 -45 243 -63 381 -65 487 -1 99 1 115 20 140 26 34 81 73 105 73 42 0 92 -64 118 -150 42 -143 56 -214 86 -455 22 -183 34 -211 74 -186 12 8 13 25 2 113 -13 105 -64 437 -81 518 -4 25 -14 74 -20 110 -7 36 -16 80 -22 98 -10 33 -35 43 -43 17z"/>
</g>


</svg>