<!DOCTYPE svg PUBLIC "-//W3C//DTD SVG 20010904//EN" "http://www.w3.org/TR/2001/REC-SVG-20010904/DTD/svg10.dtd">
<svg version="1.0" xmlns="http://www.w3.org/2000/svg" width="1200px" height="1200px" viewBox="0 0 12000 12000" preserveAspectRatio="xMidYMid meet">
<g id="layer101" fill="#1f2022" stroke="none">
<path d="M8235 10343 c-65 -10 -47 -23 31 -23 73 1 77 2 54 15 -26 15 -32 15 -85 8z"/>
<path d="M8583 10343 c-27 -10 -11 -23 27 -23 29 0 40 4 40 15 0 15 -39 20 -67 8z"/>
<path d="M6530 9279 c-144 -25 -249 -48 -365 -79 -44 -12 -93 -25 -110 -29 -16 -5 -41 -13 -55 -19 -14 -5 -47 -17 -75 -25 -179 -55 -360 -139 -640 -298 -60 -35 -160 -79 -177 -79 -5 0 -20 -11 -33 -24 -14 -14 -42 -37 -62 -53 -21 -15 -40 -30 -43 -34 -3 -3 -27 -20 -55 -39 -27 -19 -52 -37 -55 -42 -3 -4 -27 -23 -53 -41 -26 -18 -71 -57 -102 -85 -30 -29 -58 -52 -62 -52 -7 0 -411 -406 -463 -465 -19 -22 -51 -61 -70 -85 -19 -25 -41 -51 -48 -59 -39 -41 -167 -247 -253 -406 -92 -173 -128 -249 -169 -360 -12 -33 -30 -80 -39 -105 -39 -101 -110 -339 -132 -440 -6 -30 -17 -75 -24 -100 -7 -25 -18 -79 -25 -120 -6 -41 -15 -100 -20 -130 -5 -30 -14 -89 -19 -130 -6 -41 -16 -113 -23 -160 -18 -122 -18 -1003 1 -1080 41 -169 96 -264 214 -361 101 -85 201 -119 347 -119 137 0 184 21 295 134 50 51 119 124 155 164 83 93 318 313 356 332 16 8 31 17 34 20 3 3 23 14 45 26 84 44 179 97 199 113 28 21 127 121 146 146 8 11 28 38 44 60 73 100 303 315 336 315 5 0 10 5 10 10 0 6 5 10 11 10 10 0 129 77 139 90 3 4 34 26 70 50 36 24 70 48 75 52 18 14 119 80 160 104 88 51 293 142 300 132 1 -2 12 -20 24 -41 13 -21 28 -43 35 -50 6 -6 21 -25 33 -40 27 -35 29 -32 -92 -114 -132 -89 -158 -119 -163 -191 -4 -58 -4 -59 34 -90 21 -18 42 -32 47 -32 13 0 204 -97 217 -110 3 -3 19 -12 35 -20 17 -8 49 -27 72 -42 23 -15 44 -28 48 -28 3 0 13 -6 21 -12 39 -34 61 -47 117 -76 39 -19 69 -9 157 52 87 61 185 116 206 116 17 0 17 -9 5 -81 -5 -30 -15 -85 -21 -124 -6 -38 -18 -97 -26 -130 -9 -33 -19 -76 -24 -95 -11 -46 -30 -119 -40 -150 -4 -14 -13 -45 -20 -70 -29 -101 -149 -456 -175 -515 -17 -39 -58 -145 -85 -220 -12 -33 -26 -69 -31 -80 -8 -19 -116 -349 -140 -425 -6 -19 -14 -44 -19 -55 -4 -11 -18 -47 -31 -80 -32 -82 -183 -380 -213 -420 -31 -40 -106 -112 -143 -136 -15 -10 -50 -25 -78 -34 -53 -16 -297 -35 -446 -35 -186 0 -486 -59 -624 -124 -128 -59 -230 -111 -233 -118 -2 -5 -8 -8 -13 -8 -15 0 -128 -78 -173 -119 -63 -58 -174 -208 -212 -288 -60 -124 -80 -251 -52 -332 13 -37 66 -96 105 -118 13 -7 39 -13 58 -13 40 0 115 21 115 32 0 5 5 8 11 8 6 0 39 20 73 45 35 25 68 45 74 45 6 0 12 4 14 8 8 20 171 80 273 100 230 46 444 65 840 72 386 8 425 11 474 36 29 16 111 93 111 105 0 5 4 9 8 9 4 0 14 -21 21 -48 52 -186 74 -211 226 -260 98 -32 145 -53 229 -101 76 -44 94 -59 206 -168 131 -127 129 -126 163 -141 74 -32 173 2 209 71 40 79 34 283 -13 422 -19 57 -71 166 -90 189 -5 6 -30 38 -57 71 -26 33 -55 69 -65 80 -10 11 -37 45 -60 75 -23 30 -49 62 -57 70 -14 14 -141 162 -158 185 -49 65 -82 234 -64 324 7 31 12 65 12 74 0 10 9 39 21 65 12 26 26 58 32 72 17 38 191 301 222 335 15 17 48 57 73 90 26 33 115 130 198 215 83 85 173 180 200 210 48 54 125 137 233 256 31 33 65 71 76 85 87 106 111 134 118 137 4 2 7 10 7 18 0 8 4 14 8 14 4 0 15 12 24 28 18 29 50 71 85 110 12 13 25 33 28 43 4 11 10 19 14 19 5 0 14 14 21 30 7 17 16 30 21 30 5 0 9 5 9 11 0 6 8 23 18 37 37 53 252 467 283 545 7 18 25 59 41 91 15 33 28 63 28 68 0 4 9 27 19 51 34 74 119 342 149 467 46 193 62 369 62 674 0 227 -4 289 -30 491 -26 194 -36 242 -92 440 -20 72 -79 249 -95 285 -8 19 -19 44 -23 55 -28 66 -145 299 -176 350 -62 102 -115 183 -135 206 -10 12 -19 25 -19 28 0 3 -10 17 -22 31 -13 14 -36 43 -52 65 -47 64 -350 366 -414 412 -31 23 -70 55 -86 72 -16 17 -53 45 -83 63 -29 18 -53 36 -53 40 0 4 -5 8 -11 8 -6 0 -32 15 -58 33 -57 41 -152 87 -205 100 -96 23 -759 43 -856 26z"/>
</g>
<g id="layer102" fill="#474d5e" stroke="none">
<path d="M6630 9233 c-14 -2 -74 -10 -133 -19 -163 -23 -280 -51 -552 -134 -124 -38 -203 -69 -290 -115 -254 -133 -361 -191 -392 -213 -17 -12 -33 -22 -36 -22 -14 0 -162 -91 -242 -148 -173 -125 -282 -219 -509 -442 -294 -289 -367 -378 -525 -638 -145 -236 -239 -441 -333 -722 -60 -180 -71 -217 -88 -300 -6 -30 -18 -83 -26 -118 -9 -35 -19 -87 -24 -115 -39 -231 -41 -245 -69 -462 -13 -106 -16 -230 -15 -571 2 -402 16 -509 82 -641 45 -87 116 -156 205 -197 98 -45 145 -57 231 -58 132 0 158 12 271 126 56 56 121 126 147 156 60 72 115 128 213 219 91 84 158 131 265 187 41 21 89 48 105 59 95 65 136 100 177 152 25 32 68 85 94 118 89 112 225 238 311 288 45 27 113 71 150 99 67 49 159 111 298 199 68 44 84 52 190 99 28 12 76 35 108 50 l57 27 0 -36 c0 -21 6 -43 13 -50 10 -11 9 -12 -3 -6 -13 8 -13 7 0 -10 8 -11 23 -27 33 -37 10 -10 15 -24 11 -30 -4 -7 -3 -8 5 -4 6 4 14 0 18 -11 4 -10 17 -27 30 -39 l24 -20 -28 -15 c-15 -8 -32 -20 -36 -26 -4 -7 -15 -13 -22 -13 -8 0 -15 -5 -15 -11 0 -5 -4 -8 -9 -5 -5 3 -11 -1 -15 -9 -3 -8 -12 -15 -21 -15 -8 0 -15 -4 -15 -9 0 -5 -11 -12 -25 -15 -14 -4 -23 -11 -20 -15 3 -5 -11 -18 -30 -30 -19 -11 -35 -27 -35 -36 0 -9 -4 -13 -10 -10 -11 7 -11 5 -16 -73 -2 -49 0 -54 22 -63 35 -13 35 -12 23 18 -7 20 -7 29 1 31 23 8 40 35 40 62 0 33 46 85 96 110 70 34 258 159 346 230 55 44 80 61 313 206 61 37 155 102 210 144 110 84 173 114 215 105 38 -8 208 -185 289 -300 35 -49 90 -113 121 -142 37 -34 63 -67 74 -97 10 -26 22 -44 27 -40 18 10 9 -9 -18 -40 -16 -18 -42 -53 -60 -78 -19 -28 -46 -53 -70 -63 -21 -9 -71 -33 -112 -52 -40 -20 -101 -42 -134 -50 -63 -14 -177 -61 -177 -72 0 -4 7 -17 16 -29 15 -21 14 -22 -11 -12 -15 6 -38 10 -52 10 -20 0 -24 -4 -20 -19 3 -14 -3 -21 -32 -30 -20 -6 -45 -12 -56 -13 -24 -4 -30 -24 -45 -143 -6 -49 -20 -135 -31 -190 -38 -185 -182 -673 -231 -785 -31 -71 -35 -80 -68 -175 -17 -49 -40 -112 -50 -140 -48 -128 -127 -362 -173 -510 -24 -78 -54 -158 -82 -220 -118 -260 -160 -327 -274 -439 -112 -108 -150 -124 -337 -136 -82 -5 -198 -10 -259 -10 -109 0 -282 -22 -430 -55 -70 -15 -246 -82 -325 -123 -219 -113 -305 -180 -395 -307 -133 -185 -176 -354 -120 -464 27 -54 38 -61 96 -61 46 0 83 17 154 71 69 52 189 114 255 132 277 75 590 106 1090 107 319 0 368 14 445 125 66 94 78 88 115 -61 36 -145 75 -196 170 -224 25 -7 59 -19 77 -26 17 -8 35 -14 39 -14 18 0 165 -78 230 -122 39 -27 106 -87 149 -134 117 -128 177 -151 238 -90 48 47 61 124 43 239 -25 149 -99 332 -164 402 -15 17 -71 82 -124 145 -52 63 -122 145 -155 182 -118 133 -144 217 -132 433 6 102 9 117 48 198 22 49 41 91 41 93 0 12 202 301 258 368 35 43 148 165 251 270 281 288 469 499 591 661 24 33 70 92 100 130 71 89 188 278 233 375 19 41 56 116 83 165 27 50 71 142 98 205 27 63 61 140 76 170 15 30 37 89 50 130 12 41 26 86 30 100 79 237 100 346 125 645 27 320 12 606 -45 905 -5 25 -14 74 -20 110 -7 36 -15 76 -20 90 -4 14 -17 57 -28 95 -42 141 -65 210 -72 220 -4 6 -22 48 -40 95 -34 91 -65 152 -180 355 -85 152 -89 157 -241 340 -122 146 -270 296 -352 355 -27 19 -71 53 -99 75 -120 95 -247 178 -344 225 -52 24 -195 46 -389 60 -144 10 -363 12 -415 3z m-514 -1584 c8 -6 14 -15 14 -19 0 -9 -39 -23 -57 -21 -6 1 -14 -3 -18 -9 -3 -5 -13 -10 -22 -10 -24 0 -115 -49 -146 -78 -35 -33 -59 -77 -64 -117 -26 -226 -29 -298 -13 -355 9 -33 84 -120 103 -120 6 0 28 -9 51 -19 23 -11 49 -22 59 -25 10 -3 16 -10 13 -15 -3 -5 13 -12 37 -16 37 -6 40 -8 19 -16 -12 -5 -62 -14 -110 -20 -123 -16 -178 -33 -251 -76 -104 -62 -379 -344 -516 -528 -16 -22 -66 -80 -110 -130 -44 -49 -101 -115 -126 -145 -80 -95 -119 -134 -126 -127 -8 9 14 73 37 107 10 14 44 68 76 120 32 52 87 140 123 195 81 124 72 109 177 285 48 80 142 222 208 315 168 237 165 229 182 404 14 156 27 204 68 269 69 110 323 208 392 151z m-65 -256 l24 -28 -30 25 c-16 14 -32 26 -34 28 -2 1 0 2 6 2 5 0 20 -12 34 -27z m842 -810 c-13 -2 -35 -2 -50 0 -16 2 -5 4 22 4 28 0 40 -2 28 -4z m623 -175 l29 -33 -32 29 c-31 28 -38 36 -30 36 2 0 16 -15 33 -32z m-866 4 c0 -5 -26 -31 -57 -57 -99 -84 -157 -148 -197 -217 -26 -45 -46 -68 -58 -68 -23 0 -23 1 9 68 28 59 180 228 238 263 31 20 65 25 65 11z m-220 -65 c0 -2 -19 -21 -42 -42 l-43 -40 40 43 c36 39 45 47 45 39z m119 -113 c-27 -30 -98 -84 -110 -84 -16 0 6 44 38 76 24 24 43 34 65 34 l31 0 -24 -26z m21 -62 c-12 -17 -35 -39 -51 -51 l-29 -22 0 29 c0 31 25 60 68 78 35 14 39 2 12 -34z m1035 -892 c27 -27 47 -50 44 -50 -3 0 -27 23 -54 50 -27 28 -47 50 -44 50 3 0 27 -22 54 -50z m-25 -45 c19 -19 32 -35 29 -35 -3 0 -20 16 -39 35 -19 19 -32 35 -29 35 3 0 20 -16 39 -35z"/>
<path d="M6873 5232 c-23 -15 -42 -31 -43 -35 0 -4 20 6 45 23 25 17 45 33 45 35 0 7 -2 6 -47 -23z"/>
</g>
<g id="layer103" fill="#7d7b96" stroke="none">
<path d="M6720 9220 c-14 -5 -68 -21 -120 -37 -70 -22 -113 -42 -159 -76 l-63 -47 -132 7 -133 6 -39 -35 c-59 -53 -275 -138 -351 -138 -50 0 -73 -7 -160 -50 -56 -27 -108 -50 -114 -50 -69 0 -253 -80 -389 -168 -86 -56 -265 -196 -380 -297 -141 -124 -430 -420 -522 -536 -173 -217 -342 -509 -449 -777 -54 -134 -135 -374 -157 -462 -122 -499 -156 -783 -155 -1290 1 -451 16 -576 88 -705 33 -59 118 -150 163 -174 78 -42 311 126 478 345 21 28 95 118 164 200 162 192 202 246 284 377 53 85 176 323 176 341 0 5 141 261 177 321 16 28 72 115 125 195 52 80 143 227 203 325 60 99 161 254 225 345 65 91 127 184 139 207 15 31 24 80 35 192 22 233 60 299 219 377 119 58 194 65 291 28 15 -6 64 83 96 176 31 89 65 155 114 220 22 31 63 97 91 147 57 104 58 105 232 133 28 5 74 18 101 30 l51 22 -6 106 c-5 103 -5 108 18 128 13 11 58 35 99 54 41 18 120 55 175 81 l101 48 63 107 c69 116 88 165 92 240 3 48 3 48 -31 56 -45 11 -301 32 -360 30 -144 -3 -221 -3 -237 1 -10 3 -29 1 -43 -3z m212 -123 c26 -12 27 -13 10 -33 -9 -12 -51 -37 -92 -54 l-75 -33 -80 17 c-44 9 -90 16 -101 16 -16 0 -23 8 -27 28 -8 41 8 52 82 53 36 1 77 5 91 9 39 12 162 10 192 -3z"/>
<path d="M5992 7572 c-78 -34 -124 -70 -146 -117 -20 -42 -22 -50 -36 -170 -22 -196 -12 -260 52 -321 58 -56 96 -69 48 -17 l-35 38 45 -41 c79 -73 115 -81 165 -36 17 15 12 8 -12 -14 l-42 -42 41 -6 c31 -5 45 -3 60 11 41 37 51 71 43 150 -20 215 -46 291 -127 374 -25 27 -42 47 -38 46 5 -1 29 15 54 36 50 42 92 117 73 129 -23 15 -83 6 -145 -20z"/>
</g>
<g id="layer104" fill="#acacbd" stroke="none">
<path d="M6055 9012 c-16 -10 -82 -40 -145 -67 -98 -41 -124 -48 -176 -47 -55 1 -73 -4 -163 -48 -56 -27 -129 -57 -164 -65 -63 -16 -164 -52 -182 -66 -5 -4 -37 -21 -70 -39 -118 -62 -276 -175 -435 -311 -134 -115 -469 -455 -558 -567 -71 -90 -232 -323 -232 -337 0 -2 -17 -33 -38 -67 -42 -71 -120 -228 -164 -333 -53 -124 -154 -417 -176 -510 -68 -281 -87 -383 -117 -615 -3 -25 -10 -76 -15 -115 -35 -274 -29 -933 10 -1115 25 -114 99 -230 188 -295 53 -39 64 -38 154 5 104 52 229 162 334 295 21 27 107 131 189 230 83 99 166 203 186 230 77 106 175 276 234 405 33 74 78 163 98 198 20 35 37 65 37 67 0 8 142 240 166 272 13 17 24 34 24 38 0 3 31 52 68 108 38 56 108 168 156 250 81 137 161 257 279 417 80 109 95 149 107 285 17 199 39 263 112 332 41 39 147 95 211 113 45 12 109 10 179 -6 24 -5 29 -1 51 42 14 27 36 82 51 121 34 97 60 148 108 210 21 28 65 97 96 154 64 115 51 106 212 138 52 11 115 27 138 36 41 17 43 20 38 49 -3 17 -8 60 -11 96 -8 84 11 118 81 145 81 30 287 132 310 152 32 28 58 73 48 83 -5 5 -31 14 -59 21 -27 6 -59 16 -69 21 -10 6 -70 8 -133 7 -111 -4 -115 -3 -133 20 l-18 25 -43 -19 c-23 -11 -72 -41 -107 -68 -36 -26 -75 -50 -87 -53 -12 -3 -49 2 -82 10 -34 9 -71 16 -84 16 -58 0 -303 -167 -493 -337 -33 -29 -63 -53 -68 -53 -18 0 -6 59 20 92 47 62 285 249 377 296 22 11 73 43 113 72 60 42 71 54 61 66 -32 39 -113 2 -379 -169 -128 -82 -337 -224 -421 -286 -28 -20 -49 -7 -49 31 0 30 7 37 85 86 47 29 114 77 150 105 l66 52 -32 5 c-18 3 -37 13 -43 23 -14 22 -13 22 142 102 105 54 131 74 105 82 -4 2 -21 -5 -38 -15z"/>
<path d="M6006 7577 c-70 -26 -165 -108 -170 -147 -2 -14 -6 -32 -10 -40 -9 -23 -26 -187 -26 -255 0 -87 14 -125 62 -171 58 -56 96 -69 48 -17 -28 30 -25 28 16 -9 69 -63 113 -72 158 -32 18 16 13 10 -11 -12 l-42 -42 41 -6 c73 -12 114 49 104 153 -10 107 -27 214 -39 246 -19 53 -80 137 -120 166 -22 16 -35 29 -29 29 6 0 14 -5 17 -10 10 -17 103 72 120 114 9 21 14 40 12 43 -15 14 -80 9 -131 -10z m-18 -614 c-10 -2 -26 -2 -35 0 -10 3 -2 5 17 5 19 0 27 -2 18 -5z"/>
</g>
<g id="layer105" fill="#040308" stroke="none">
<path d="M6020 7578 c-14 -6 -41 -17 -61 -25 -43 -17 -114 -87 -124 -121 -6 -22 -5 -23 17 -12 20 11 20 9 -4 -12 -24 -20 -28 -34 -38 -120 -21 -204 -12 -263 52 -324 59 -56 92 -67 44 -14 -20 22 -36 43 -36 47 0 4 16 -12 36 -36 37 -43 99 -81 132 -81 19 0 60 39 80 75 7 13 12 15 12 6 0 -8 -22 -36 -49 -62 l-49 -47 41 -6 c44 -7 68 7 94 58 16 31 13 103 -11 256 -19 114 -77 214 -152 261 -28 17 -45 20 -82 16 -31 -4 -40 -3 -27 3 28 12 73 12 96 -1 17 -9 28 -4 65 26 37 30 84 98 84 120 0 9 -94 4 -120 -7z m-62 -255 c-10 -2 -26 -2 -35 0 -10 3 -2 5 17 5 19 0 27 -2 18 -5z m73 -35 c20 -18 26 -26 15 -17 -12 9 -32 23 -46 32 -13 10 -20 17 -14 17 6 0 26 -15 45 -32z m-106 -278 c1 -23 -2 -34 -7 -27 -12 19 -8 68 6 67 1 0 1 -18 1 -40z m88 -41 c-6 -6 -26 -9 -44 -6 l-34 4 38 1 c20 1 37 7 37 14 0 6 3 8 7 5 4 -4 2 -12 -4 -18z"/>
<path d="M6745 6554 c-33 -14 -89 -37 -125 -51 -56 -23 -81 -43 -173 -138 -89 -91 -110 -119 -123 -160 -19 -65 -29 -158 -19 -182 5 -10 9 -20 9 -23 2 -9 90 -125 103 -135 9 -7 -13 -27 -85 -75 -53 -36 -101 -70 -107 -76 -5 -6 -22 -18 -37 -27 -16 -10 -28 -24 -28 -33 0 -8 -4 -13 -8 -10 -10 6 -15 -25 -15 -82 1 -48 0 -47 31 -56 21 -7 21 -6 11 21 -7 20 -7 29 1 31 23 8 40 35 40 62 0 33 46 85 96 110 70 34 258 159 346 230 55 44 80 61 313 206 61 37 155 102 210 144 110 84 173 114 215 105 38 -8 208 -185 289 -300 35 -49 88 -112 118 -139 33 -29 64 -69 76 -97 17 -37 25 -47 36 -40 33 21 -54 171 -165 286 -42 44 -112 123 -155 176 -79 98 -145 162 -186 181 -18 9 -34 4 -95 -33 -40 -24 -87 -51 -105 -61 l-32 -18 -31 45 c-37 54 -98 105 -166 139 -70 35 -156 35 -239 0z m-95 -142 c0 -5 -26 -31 -57 -57 -99 -84 -157 -148 -197 -217 -26 -45 -46 -68 -58 -68 -23 0 -23 1 9 68 28 59 180 228 238 263 31 20 65 25 65 11z m-101 -178 c-27 -30 -98 -84 -110 -84 -16 0 6 44 38 76 24 24 43 34 65 34 l31 0 -24 -26z m21 -62 c-12 -17 -35 -39 -51 -51 l-29 -22 0 29 c0 31 25 60 68 78 35 14 39 2 12 -34z"/>
<path d="M7341 6249 c-19 -12 -69 -47 -111 -79 -42 -32 -128 -90 -191 -130 -62 -39 -166 -109 -229 -154 -63 -45 -144 -99 -180 -120 -36 -21 -94 -57 -129 -80 -36 -22 -92 -52 -125 -66 -34 -14 -62 -32 -64 -40 -1 -9 16 -25 40 -39 79 -44 312 -183 375 -223 l62 -40 68 40 c37 22 91 52 118 67 99 54 135 77 135 85 0 5 -18 23 -40 41 -46 37 -90 97 -90 124 0 12 21 -3 68 -52 41 -44 81 -75 103 -82 34 -11 42 -9 120 31 46 24 109 54 139 68 30 13 87 38 125 56 39 18 127 51 198 75 71 23 127 48 127 54 0 7 -15 16 -33 19 -44 8 -109 77 -260 276 -75 100 -160 190 -178 190 -8 0 -30 -10 -48 -21z"/>
<path d="M7272 5433 c2 -9 25 -26 54 -37 92 -38 188 -100 254 -166 82 -81 123 -159 128 -247 4 -61 20 -92 42 -78 14 9 12 80 -4 141 -21 79 -62 142 -150 229 -63 62 -102 91 -174 128 -97 49 -156 61 -150 30z"/>
</g>
<g id="layer106" fill="#f9f9f9" stroke="none">
<path d="M5870 7298 c-46 -50 -48 -121 -8 -261 21 -70 118 -157 177 -157 23 0 78 61 87 97 10 40 -15 181 -43 236 -47 94 -162 140 -213 85z m131 -239 c14 -14 19 -30 17 -57 -3 -35 -5 -37 -39 -40 -63 -5 -91 50 -49 96 26 27 44 28 71 1z"/>
</g>
<g id="layer107" fill="#d8d6dd" stroke="none">
<path d="M5480 8802 c-85 -42 -203 -110 -262 -150 -59 -39 -113 -72 -120 -72 -6 0 -21 9 -33 20 l-21 20 -50 -37 c-145 -109 -176 -133 -257 -203 -85 -73 -426 -406 -497 -486 -94 -106 -229 -292 -291 -399 -12 -22 -35 -62 -51 -90 -16 -27 -33 -57 -38 -65 -19 -30 -117 -237 -144 -305 -78 -192 -156 -433 -181 -555 -7 -36 -23 -110 -35 -165 -25 -118 -45 -229 -65 -375 -39 -286 -50 -670 -28 -995 17 -252 30 -304 106 -418 47 -71 143 -149 172 -141 24 7 135 59 153 71 9 7 5 22 -18 64 l-30 54 0 430 c1 500 13 819 34 887 11 35 12 56 4 84 -10 36 -6 84 11 134 5 14 18 57 29 95 56 194 131 431 151 480 5 11 21 52 37 90 58 147 140 305 284 550 29 49 231 348 240 355 3 3 17 21 30 40 13 19 31 39 39 45 20 12 99 33 105 28 2 -3 1 -17 -4 -31 -4 -15 -13 -52 -20 -82 -16 -67 -19 -73 -162 -290 -63 -96 -127 -197 -143 -225 -92 -158 -173 -317 -206 -405 -15 -41 -41 -113 -59 -160 -63 -169 -133 -389 -169 -535 -5 -16 -19 -55 -33 -85 l-26 -55 20 -39 c18 -36 19 -46 9 -107 -13 -78 -16 -1186 -3 -1206 9 -15 70 45 155 153 30 39 119 147 197 240 172 206 280 365 366 544 149 306 213 418 429 750 35 52 108 172 165 265 92 153 206 323 267 398 13 16 39 56 59 90 31 53 37 74 45 157 24 245 52 329 128 389 41 33 138 83 194 101 37 12 131 9 187 -5 21 -5 28 -1 45 31 12 23 20 57 20 88 0 46 6 60 65 144 104 150 173 256 203 311 32 59 41 64 178 91 124 24 192 52 185 77 -2 10 -8 38 -11 61 l-7 44 -33 -32 c-21 -20 -35 -28 -39 -21 -5 8 -13 8 -26 1 -57 -31 -137 1 -170 68 -13 26 -43 67 -66 92 -26 29 -44 59 -48 82 -4 21 -11 40 -17 43 -17 11 -92 -41 -185 -126 -76 -69 -163 -129 -308 -211 -17 -10 -50 -18 -73 -18 l-43 0 0 52 c0 51 0 52 83 132 46 45 127 115 180 156 53 41 95 79 94 83 -1 5 -14 16 -28 24 -25 15 -29 13 -189 -92 -160 -106 -268 -183 -302 -217 -27 -27 -99 -61 -109 -51 -5 5 -11 23 -15 39 -7 34 -9 31 76 95 126 95 160 140 160 212 0 49 8 44 -105 62 -23 3 -65 -13 -185 -73z m-860 -681 c5 -11 10 -28 10 -38 0 -36 -49 -119 -105 -178 -82 -86 -232 -275 -302 -380 -80 -119 -230 -411 -288 -560 -26 -66 -53 -134 -61 -152 -8 -17 -14 -34 -14 -38 0 -4 -6 -21 -14 -38 -13 -30 -26 -71 -69 -217 -85 -286 -129 -427 -144 -458 -16 -33 -23 -37 -59 -40 -35 -3 -45 1 -63 25 -26 33 -24 61 19 203 31 101 90 303 120 410 32 110 35 120 105 290 83 205 236 513 305 617 111 165 251 342 359 456 106 110 116 117 152 117 28 0 41 -5 49 -19z m610 -808 c28 -23 31 -30 25 -62 -3 -20 -25 -74 -49 -121 -24 -47 -67 -139 -96 -205 -29 -66 -60 -138 -70 -160 -54 -121 -133 -382 -166 -545 -13 -69 -29 -138 -35 -153 -21 -51 -67 -61 -112 -24 -35 28 -37 61 -7 212 41 213 113 429 237 720 121 280 171 358 235 364 3 1 21 -11 38 -26z m-359 -90 c16 -42 1 -91 -81 -258 -115 -236 -157 -343 -240 -620 -34 -114 -49 -173 -90 -350 -5 -22 -16 -69 -24 -105 -37 -160 -45 -201 -55 -300 -7 -58 -16 -144 -21 -191 -6 -47 -10 -130 -10 -185 0 -93 -2 -102 -24 -123 -26 -25 -77 -31 -100 -12 -31 26 -39 79 -31 230 8 177 27 346 54 472 95 448 120 547 195 764 67 198 127 341 213 511 56 111 74 138 117 172 55 45 78 44 97 -5z"/>
<path d="M6020 7578 c-14 -6 -41 -17 -61 -25 -42 -17 -114 -87 -124 -120 l-6 -23 43 20 c48 22 90 25 119 9 17 -9 28 -4 65 26 37 30 84 98 84 120 0 9 -94 4 -120 -7z"/>
</g>
<g id="layer108" fill="#c1c0cd" stroke="none">
<path d="M5480 8802 c-148 -74 -270 -147 -270 -162 0 -18 16 -16 87 11 42 15 72 25 67 20 -5 -4 -36 -30 -69 -57 -202 -166 -252 -214 -284 -275 l-33 -61 21 -19 c26 -25 69 -33 101 -21 14 5 59 41 100 80 61 57 142 121 276 219 29 22 55 32 67 27 24 -9 186 126 213 178 8 15 14 47 14 71 0 49 8 44 -105 62 -23 3 -65 -13 -185 -73z"/>
<path d="M5955 8732 c-167 -111 -264 -181 -296 -213 -10 -10 -37 -28 -60 -39 -50 -26 -64 -17 -64 39 0 28 -2 35 -11 27 -6 -6 -31 -27 -55 -46 -79 -62 -300 -283 -360 -361 -79 -102 -253 -239 -303 -239 -40 0 -103 -41 -141 -91 -85 -114 -95 -129 -87 -129 4 0 18 18 32 40 13 22 31 43 40 46 27 13 100 31 104 27 2 -3 1 -17 -4 -31 -4 -15 -13 -52 -20 -82 -13 -53 -33 -97 -70 -150 -24 -35 -32 -50 -27 -50 2 0 17 19 32 43 38 56 180 234 222 275 18 18 62 46 97 62 53 23 87 51 183 147 65 65 181 175 258 245 274 245 310 272 366 266 l32 -3 -42 -50 c-23 -27 -60 -81 -83 -120 -23 -38 -69 -113 -103 -165 -63 -97 -97 -163 -109 -214 -8 -33 15 -66 46 -66 28 0 186 151 324 310 140 160 132 152 166 174 28 19 59 17 152 -10 73 -21 89 -18 142 26 44 36 54 40 104 40 30 0 73 -6 95 -12 l40 -13 -37 -3 c-41 -4 -88 -48 -88 -84 0 -25 -45 -116 -71 -144 -19 -20 -51 -32 -132 -49 l-28 -6 21 -28 c11 -16 20 -37 20 -46 0 -41 -106 -298 -138 -336 -32 -38 -33 -39 -13 -47 12 -4 38 -6 59 -4 49 5 65 30 67 102 0 51 5 62 65 148 105 152 173 256 203 311 32 59 41 64 178 91 124 24 192 52 185 77 -2 10 -8 38 -11 61 l-7 44 -33 -32 c-21 -20 -35 -28 -39 -21 -5 8 -13 8 -26 1 -57 -31 -137 1 -170 68 -13 26 -43 67 -66 92 -26 29 -44 59 -48 82 -4 21 -11 40 -17 43 -17 11 -92 -41 -185 -126 -76 -69 -163 -129 -308 -211 -17 -10 -50 -18 -73 -18 l-43 0 0 51 c0 50 1 53 73 123 39 40 119 110 177 156 58 46 107 85 110 87 6 6 -42 43 -55 42 -5 0 -82 -48 -170 -107z"/>
<path d="M4637 8216 c-43 -12 -80 -34 -99 -61 -4 -6 -8 -2 -8 8 0 9 -3 17 -6 17 -7 0 -235 -233 -284 -290 -66 -77 -81 -95 -101 -116 -10 -12 -19 -25 -19 -28 0 -4 -11 -19 -25 -34 -14 -15 -25 -32 -25 -39 0 -6 -3 -13 -7 -15 -12 -5 -73 -95 -73 -107 0 -6 -4 -11 -10 -11 -5 0 -10 -7 -10 -15 0 -8 -4 -15 -8 -15 -4 0 -14 -16 -21 -35 -7 -19 -16 -35 -21 -35 -4 0 -15 -17 -23 -38 -8 -21 -22 -44 -31 -51 -9 -8 -16 -19 -16 -27 0 -7 -18 -48 -41 -91 -53 -100 -123 -266 -150 -351 -11 -37 -25 -76 -29 -87 -16 -35 -41 -108 -55 -160 -7 -27 -18 -65 -24 -83 -5 -18 -10 -35 -10 -37 1 -9 -12 -68 -27 -133 -8 -35 -19 -87 -24 -115 -13 -74 -20 -109 -25 -132 -2 -11 -7 -42 -10 -70 -4 -27 -9 -59 -12 -70 -5 -17 -3 -17 14 4 19 24 63 37 63 19 0 -5 21 -8 46 -6 50 3 76 26 89 78 3 14 -5 5 -17 -20 -21 -41 -26 -45 -64 -48 -35 -3 -45 1 -62 22 -10 14 -21 24 -23 22 -2 -3 -4 9 -5 25 -1 15 3 26 7 23 8 -5 14 39 11 79 -1 11 2 16 10 11 8 -5 9 0 6 14 -4 12 -2 22 4 22 6 0 7 7 4 16 -3 8 -2 13 3 10 11 -7 23 52 14 67 -3 6 -1 7 5 3 12 -7 17 16 14 57 -1 10 3 15 8 12 10 -6 15 20 12 58 -1 11 2 16 10 11 8 -5 9 0 6 14 -4 12 -2 22 4 22 6 0 8 6 5 14 -3 8 -3 16 2 18 4 2 17 37 29 78 12 41 27 90 33 107 6 18 7 37 4 43 -3 5 -1 10 5 10 6 0 8 5 5 10 -3 6 -1 10 5 10 7 0 10 6 8 12 -3 7 2 19 9 27 8 7 12 18 10 25 -2 6 3 17 10 25 8 7 12 20 9 27 -3 8 -1 14 5 14 6 0 7 5 4 10 -3 6 -1 10 5 10 7 0 10 6 8 12 -3 7 2 19 9 27 8 7 12 20 9 28 -4 9 -2 11 6 7 8 -5 9 -2 5 9 -4 10 -2 17 4 17 6 0 8 7 5 16 -4 10 -2 13 6 8 8 -5 9 -2 5 9 -4 10 -1 17 5 17 6 0 9 3 5 6 -3 4 1 13 9 21 8 9 13 22 10 30 -4 9 -2 11 6 7 8 -5 9 -2 5 10 -4 9 -3 15 1 12 10 -6 44 62 37 74 -3 4 2 11 11 14 9 3 14 13 11 20 -3 8 1 17 10 20 8 4 13 13 10 20 -3 8 1 17 10 20 8 4 13 13 9 21 -3 8 -1 15 4 15 5 0 22 24 36 53 15 28 35 64 46 79 11 16 16 34 12 40 -4 7 -3 10 1 5 10 -8 77 82 70 94 -3 4 0 11 6 15 8 5 10 2 5 -7 -4 -8 2 -3 13 11 20 24 25 36 22 53 -1 5 3 6 8 2 11 -6 37 34 32 50 -1 6 1 7 5 3 3 -4 23 14 42 40 19 26 49 63 66 82 17 19 22 28 11 20 -15 -11 -14 -8 4 13 14 15 28 27 32 27 3 0 44 38 90 85 80 82 85 86 124 83 33 -2 41 -8 49 -30 11 -32 -13 -103 -52 -151 -15 -18 10 1 55 41 100 89 123 124 123 186 0 45 0 46 -32 45 -18 0 -54 -6 -81 -13z"/>
<path d="M4486 7864 c-70 -78 -194 -237 -256 -329 -57 -85 -132 -216 -127 -221 2 -2 24 34 50 80 77 137 234 350 351 473 22 24 38 44 35 46 -2 2 -26 -20 -53 -49z"/>
<path d="M4517 7608 c-125 -176 -352 -548 -334 -548 3 0 20 26 37 58 79 140 151 258 247 400 103 152 135 208 50 90z"/>
<path d="M6010 7574 l-35 -13 31 0 c28 -1 32 -5 38 -38 5 -31 2 -41 -15 -55 -12 -10 -29 -18 -38 -18 -14 -1 -14 -2 2 -11 15 -9 27 -4 63 26 37 30 84 97 84 120 0 10 -95 2 -130 -11z"/>
<path d="M4582 7413 c-47 -71 -54 -83 -49 -83 2 0 25 32 51 70 25 39 44 70 41 70 -2 0 -22 -26 -43 -57z"/>
<path d="M4844 7370 c-12 -5 -33 -24 -47 -42 -25 -34 -81 -138 -73 -138 2 0 25 18 52 39 38 32 51 38 66 30 39 -21 43 -81 13 -164 -11 -30 31 37 65 104 16 33 34 78 39 101 8 36 6 45 -10 61 -20 20 -68 24 -105 9z"/>
<path d="M5201 7338 c2 -2 18 -14 34 -28 l30 -25 -24 28 c-14 15 -29 27 -34 27 -6 0 -8 -1 -6 -2z"/>
<path d="M5113 7296 c-15 -19 -36 -50 -46 -68 -17 -32 -17 -32 0 -8 10 13 33 44 50 67 39 51 36 57 -4 9z"/>
<path d="M4468 7238 c-22 -34 -42 -74 -31 -63 14 15 55 85 50 85 -3 0 -11 -10 -19 -22z"/>
<path d="M4009 7139 c-22 -45 -39 -83 -37 -85 2 -2 23 35 46 81 23 47 40 85 37 85 -3 0 -23 -36 -46 -81z"/>
<path d="M5027 7155 c-24 -50 -20 -58 4 -12 11 22 19 41 17 43 -3 2 -12 -12 -21 -31z"/>
<path d="M4405 7134 c-9 -14 -15 -27 -13 -30 2 -2 12 10 22 26 21 37 15 40 -9 4z"/>
<path d="M4670 7100 c-11 -22 -18 -40 -15 -40 2 0 14 18 25 40 11 22 18 40 15 40 -2 0 -14 -18 -25 -40z"/>
<path d="M4146 6999 c-15 -28 -25 -53 -23 -56 3 -2 16 19 31 48 34 68 28 74 -8 8z"/>
<path d="M3927 6947 c-20 -51 -37 -97 -36 -102 0 -6 18 34 40 89 22 54 38 100 36 102 -2 2 -20 -38 -40 -89z"/>
<path d="M4286 6909 c-36 -73 -66 -140 -66 -148 0 -9 15 18 33 59 18 41 49 106 70 144 20 38 35 72 32 74 -2 2 -33 -56 -69 -129z"/>
<path d="M4962 7005 c-17 -37 -14 -45 4 -12 9 16 14 31 11 33 -2 2 -9 -7 -15 -21z"/>
<path d="M5122 6955 c-17 -37 -14 -45 4 -12 9 16 14 31 11 33 -2 2 -9 -7 -15 -21z"/>
<path d="M4097 6895 c-24 -50 -20 -58 4 -12 11 22 19 41 17 43 -3 2 -12 -12 -21 -31z"/>
<path d="M4902 6865 c-17 -37 -14 -45 4 -12 9 16 14 31 11 33 -2 2 -9 -7 -15 -21z"/>
<path d="M5082 6865 c-17 -37 -14 -45 4 -12 9 16 14 31 11 33 -2 2 -9 -7 -15 -21z"/>
<path d="M4062 6815 c-17 -37 -14 -45 4 -12 9 16 14 31 11 33 -2 2 -9 -7 -15 -21z"/>
<path d="M3869 6804 c-5 -15 -8 -29 -5 -31 2 -2 8 10 14 26 13 38 5 41 -9 5z"/>
<path d="M4521 6779 c-12 -29 -20 -54 -18 -56 2 -2 14 20 26 48 12 29 20 54 18 56 -2 2 -14 -20 -26 -48z"/>
<path d="M4862 6767 c-17 -47 -14 -59 4 -18 8 19 13 39 12 43 -2 5 -9 -6 -16 -25z"/>
<path d="M5025 6733 c-9 -20 -14 -40 -13 -45 2 -5 11 11 20 37 20 54 15 61 -7 8z"/>
<path d="M3835 6718 c-22 -72 -26 -90 -21 -95 3 -4 6 -2 6 3 0 5 7 30 15 57 8 26 12 47 9 47 -2 0 -6 -6 -9 -12z"/>
<path d="M4176 6647 c-23 -61 -19 -72 5 -13 11 27 18 50 16 53 -2 2 -12 -16 -21 -40z"/>
<path d="M3976 6589 c-14 -45 -25 -84 -23 -86 2 -2 16 33 31 78 15 45 25 83 23 85 -2 2 -16 -33 -31 -77z"/>
<path d="M3796 6595 c-3 -9 -6 -24 -5 -33 0 -9 5 -4 10 12 9 32 6 48 -5 21z"/>
<path d="M4441 6569 c-6 -18 -9 -34 -7 -36 2 -2 9 10 15 28 6 18 9 34 7 36 -2 2 -9 -10 -15 -28z"/>
<path d="M3927 6433 c-9 -31 -15 -58 -13 -61 2 -2 12 22 21 53 9 32 14 59 12 61 -2 3 -11 -21 -20 -53z"/>
<path d="M3717 6318 c-10 -33 -16 -62 -14 -64 2 -2 12 23 22 56 10 33 16 62 14 64 -2 3 -12 -23 -22 -56z"/>
<path d="M3875 6263 c-9 -32 -19 -67 -22 -78 -3 -11 -3 -17 1 -14 9 8 47 142 42 147 -2 2 -12 -23 -21 -55z"/>
<path d="M4036 6234 c-4 -14 -5 -28 -3 -31 3 -2 8 8 11 23 4 14 5 28 3 31 -3 2 -8 -8 -11 -23z"/>
<path d="M3676 6184 c-10 -31 -16 -58 -14 -60 3 -2 12 21 22 52 10 31 16 58 14 60 -3 2 -12 -21 -22 -52z"/>
<path d="M4015 6160 c-4 -17 -5 -34 -2 -36 2 -3 7 10 11 27 8 42 0 50 -9 9z"/>
<path d="M4860 6153 c0 -65 -42 -133 -81 -133 -32 0 -77 37 -83 68 -2 15 -3 -3 -2 -40 2 -55 6 -72 26 -93 40 -42 110 -27 130 29 13 35 26 186 16 186 -3 0 -6 -8 -6 -17z"/>
<path d="M3836 6134 c-4 -14 -5 -29 -2 -31 3 -3 8 7 12 21 3 15 4 29 1 32 -2 3 -8 -7 -11 -22z"/>
<path d="M3996 6095 c-3 -9 -6 -24 -5 -33 0 -9 5 -4 10 12 9 32 6 48 -5 21z"/>
<path d="M3814 6044 c-3 -25 -3 -54 2 -65 6 -14 9 0 10 46 0 36 -1 65 -2 65 -2 0 -6 -21 -10 -46z"/>
<path d="M3947 5959 c-12 -30 -12 -38 1 -66 9 -18 17 -31 20 -29 2 2 -3 17 -11 33 -13 25 -13 32 0 57 8 15 12 30 9 33 -3 3 -11 -10 -19 -28z"/>
<path d="M3820 5910 c-6 -23 -9 -44 -7 -46 2 -3 9 14 15 38 6 23 9 44 7 46 -2 2 -9 -15 -15 -38z"/>
<path d="M3796 5804 c-3 -26 -5 -104 -4 -173 l1 -126 7 170 c4 94 6 171 5 173 -1 1 -5 -18 -9 -44z"/>
<path d="M3956 5754 c-3 -26 -5 -88 -4 -138 1 -85 2 -82 8 44 4 74 7 136 5 138 -1 1 -5 -18 -9 -44z"/>
<path d="M4212 5600 c0 -19 2 -27 5 -17 2 9 2 25 0 35 -3 9 -5 1 -5 -18z"/>
<path d="M4373 5510 c0 -30 2 -43 4 -27 2 15 2 39 0 55 -2 15 -4 2 -4 -28z"/>
<path d="M3781 5210 c-2 -140 -3 -340 -1 -445 l2 -190 30 -58 c17 -31 33 -56 35 -54 2 2 -9 26 -24 53 l-28 49 -5 450 c-5 392 -6 417 -9 195z"/>
<path d="M4193 5375 c0 -38 2 -53 4 -32 2 20 2 52 0 70 -2 17 -4 1 -4 -38z"/>
<path d="M4354 5235 c0 -66 1 -92 3 -57 2 34 2 88 0 120 -2 31 -3 3 -3 -63z"/>
<path d="M4183 5200 c0 -30 2 -43 4 -27 2 15 2 39 0 55 -2 15 -4 2 -4 -28z"/>
<path d="M4190 5129 c0 -23 39 -69 58 -68 12 0 10 3 -6 9 -13 6 -29 24 -37 42 -8 18 -14 26 -15 17z"/>
<path d="M3952 4735 c-1 -82 2 -155 6 -162 4 -6 6 44 4 110 -4 193 -8 215 -10 52z"/>
</g>
<g id="layer109" fill="#b6b4c4" stroke="none">
<path d="M5480 8802 c-170 -85 -275 -151 -262 -164 5 -5 41 5 82 22 41 17 78 29 83 27 5 -1 -33 -37 -84 -79 -193 -156 -240 -202 -275 -268 l-33 -64 27 -18 c53 -35 74 -26 193 84 134 123 294 238 332 238 11 0 15 -5 11 -11 -26 -43 161 113 193 160 16 23 23 49 23 81 0 52 9 47 -105 65 -23 3 -65 -13 -185 -73z"/>
<path d="M5955 8732 c-131 -87 -256 -175 -285 -199 -3 -3 3 -11 13 -18 16 -11 24 -11 52 1 39 16 54 17 74 5 10 -7 3 -23 -36 -73 -27 -35 -66 -94 -86 -131 -21 -36 -60 -99 -88 -139 -59 -86 -99 -169 -106 -220 -5 -33 -2 -39 20 -49 25 -11 31 -7 125 80 55 50 166 168 248 261 91 104 159 174 174 178 51 14 126 7 164 -16 l38 -22 58 41 c89 62 124 63 237 5 50 -25 104 -46 121 -46 30 0 110 54 142 96 8 10 -2 4 -22 -14 -22 -21 -38 -30 -42 -23 -5 8 -13 8 -26 1 -57 -31 -137 1 -170 68 -13 26 -43 67 -66 92 -26 29 -44 59 -48 82 -4 21 -11 40 -17 43 -17 11 -92 -41 -185 -126 -76 -69 -163 -129 -308 -211 -17 -10 -50 -18 -73 -18 l-43 0 0 51 c0 50 1 53 73 123 39 40 119 110 177 156 58 46 107 85 110 87 6 6 -42 43 -55 42 -5 0 -82 -48 -170 -107z"/>
<path d="M4394 8052 c-116 -121 -163 -172 -215 -236 -13 -15 -32 -37 -41 -47 -10 -10 -18 -23 -18 -29 0 -5 -4 -10 -8 -10 -4 0 -16 -15 -27 -32 -10 -18 -21 -35 -25 -38 -3 -3 -20 -27 -38 -55 -17 -27 -36 -55 -42 -62 -5 -7 -10 -16 -10 -22 0 -5 -3 -11 -7 -13 -5 -1 -16 -19 -26 -38 -42 -82 -51 -96 -70 -117 -11 -13 -18 -23 -15 -23 4 0 -17 -48 -47 -107 -57 -117 -123 -272 -154 -368 -11 -33 -29 -85 -41 -115 -12 -30 -23 -62 -25 -70 -1 -8 -9 -35 -16 -60 -7 -25 -13 -50 -14 -55 -2 -6 -15 -64 -30 -130 -15 -66 -39 -191 -55 -278 -27 -157 -27 -158 -6 -140 11 11 32 18 46 17 l24 -1 -27 21 c-18 14 -27 31 -27 49 0 19 4 26 11 21 8 -5 10 1 7 20 -3 14 -2 29 2 31 5 3 6 15 2 27 -4 15 -2 19 7 13 10 -5 11 -2 6 14 -4 12 -2 21 4 21 6 0 7 7 4 17 -5 12 -3 14 7 8 10 -6 12 -3 8 13 -4 12 -2 22 4 22 5 0 6 10 3 21 -5 16 -4 19 5 14 9 -5 10 -2 5 14 -3 11 -2 21 3 21 6 0 8 10 4 22 -4 15 -2 19 7 13 10 -5 11 -2 6 14 -3 11 -2 21 3 21 6 0 8 10 4 22 -4 15 -2 19 7 13 10 -5 11 -2 6 14 -4 12 -2 21 4 21 6 0 8 7 5 15 -4 8 -1 15 5 15 6 0 8 6 5 14 -3 8 0 17 5 21 6 3 9 11 6 16 -4 5 -1 9 5 9 7 0 9 8 5 20 -4 12 -2 20 5 20 7 0 10 7 6 15 -3 8 -1 15 5 15 6 0 8 9 4 19 -3 11 -1 22 5 26 6 3 8 11 5 16 -4 5 -2 9 3 9 6 0 8 9 5 20 -3 12 0 20 6 20 7 0 9 5 6 10 -3 6 -2 10 4 10 6 0 8 7 5 15 -4 8 -1 15 6 15 6 0 8 5 5 10 -3 6 -2 10 4 10 6 0 8 7 5 15 -4 8 -1 15 6 15 6 0 8 5 5 10 -3 6 -2 10 4 10 6 0 8 7 5 15 -4 8 -1 15 6 15 6 0 8 5 5 10 -3 6 -2 10 4 10 6 0 8 7 5 15 -4 8 -1 15 6 15 6 0 8 5 5 10 -3 6 -2 10 4 10 6 0 7 7 4 17 -5 12 -3 14 7 8 10 -6 12 -4 7 8 -3 10 -2 17 3 17 5 0 6 7 3 17 -5 12 -3 14 7 8 10 -6 12 -4 7 8 -3 10 -2 17 4 17 6 0 7 5 4 10 -3 6 -1 10 5 10 6 0 8 5 5 10 -3 6 -2 10 4 10 6 0 7 7 4 17 -4 10 -2 14 4 10 6 -4 14 0 17 9 3 8 2 12 -4 9 -6 -4 -5 5 1 19 7 14 16 23 20 20 5 -3 6 3 2 12 -5 13 -3 15 7 9 8 -5 11 -4 7 3 -10 15 3 43 16 35 5 -3 7 -1 4 5 -9 14 3 43 14 36 5 -3 6 2 3 10 -4 9 0 18 9 22 9 3 13 12 10 20 -3 7 2 17 11 20 9 3 13 10 10 15 -3 5 0 9 6 9 6 0 8 5 5 10 -3 6 -1 10 5 10 6 0 8 5 5 10 -3 6 -1 10 5 10 6 0 8 5 5 10 -3 6 -1 10 5 10 6 0 9 4 6 9 -3 5 1 12 10 15 9 4 14 9 11 13 -4 3 1 12 11 20 10 9 11 11 2 7 -22 -12 15 44 49 75 14 13 19 20 11 16 -8 -4 -4 3 10 16 14 13 21 22 15 19 -6 -3 1 6 15 19 14 13 18 20 10 15 -13 -7 -13 -5 -1 12 8 10 28 32 45 47 17 16 24 26 16 22 -8 -3 -1 6 15 20 17 15 23 24 15 20 -8 -3 -4 3 10 15 14 12 25 26 25 31 0 5 16 23 35 40 19 17 26 25 15 18 -20 -13 -20 -13 -1 8 10 13 23 20 28 17 4 -3 7 0 6 8 -2 7 3 12 10 10 8 -1 11 1 8 6 -3 5 31 44 75 87 68 69 98 116 72 115 -5 0 -63 -58 -129 -128z"/>
<path d="M4553 8143 c9 -2 25 -2 35 0 9 3 1 5 -18 5 -19 0 -27 -2 -17 -5z"/>
<path d="M4459 7833 l-34 -38 38 34 c20 19 37 36 37 38 0 8 -8 0 -41 -34z"/>
<path d="M4690 7790 c-20 -6 -21 -8 -5 -8 11 0 29 3 40 8 25 11 -1 11 -35 0z"/>
<path d="M4745 7750 c-4 -17 -5 -34 -2 -36 2 -3 7 10 11 27 8 42 0 50 -9 9z"/>
<path d="M4725 7656 c-4 -20 -11 -39 -16 -42 -5 -3 -9 -10 -9 -15 0 -6 4 -7 10 -4 11 7 34 85 26 92 -2 3 -8 -11 -11 -31z"/>
<path d="M6030 7580 c-9 -6 -10 -10 -3 -10 6 0 16 -19 21 -42 10 -51 -6 -78 -47 -78 -23 -1 -24 -2 -8 -11 15 -9 27 -4 63 26 37 30 84 97 84 120 0 9 -94 5 -110 -5z"/>
<path d="M4480 7550 c-12 -16 -19 -30 -16 -30 2 0 14 14 26 30 12 17 19 30 16 30 -2 0 -14 -13 -26 -30z"/>
<path d="M3802 5810 c0 -19 2 -27 5 -17 2 9 2 25 0 35 -3 9 -5 1 -5 -18z"/>
<path d="M3953 5690 c0 -30 2 -43 4 -27 2 15 2 39 0 55 -2 15 -4 2 -4 -28z"/>
<path d="M3793 5590 c0 -47 2 -66 4 -42 2 23 2 61 0 85 -2 23 -4 4 -4 -43z"/>
<path d="M4193 5350 c0 -25 2 -35 4 -22 2 12 2 32 0 45 -2 12 -4 2 -4 -23z"/>
<path d="M3785 4980 c0 -217 1 -306 2 -197 2 108 2 286 0 395 -1 108 -2 19 -2 -198z"/>
</g>
<g id="layer110" fill="#d7dbed" stroke="none">
<path d="M4399 8053 c-118 -119 -157 -161 -220 -237 -13 -16 -32 -38 -41 -48 -10 -10 -18 -21 -18 -24 0 -3 -10 -19 -22 -34 -13 -15 -30 -37 -38 -50 -8 -12 -22 -32 -31 -44 -9 -11 -26 -40 -39 -63 -13 -24 -27 -43 -32 -43 -4 0 -8 -5 -8 -12 0 -6 -21 -47 -47 -92 -97 -168 -198 -389 -253 -556 -11 -30 -32 -93 -48 -140 -47 -134 -152 -615 -152 -694 0 -17 2 -18 18 -4 9 9 23 13 31 10 10 -3 9 4 -4 26 -18 29 -18 34 -2 104 10 40 37 141 62 223 25 83 63 209 84 280 71 236 207 554 351 815 97 176 270 401 432 566 69 70 109 118 106 128 -2 11 -41 -22 -129 -111z"/>
</g>


</svg>