<!DOCTYPE svg PUBLIC "-//W3C//DTD SVG 20010904//EN" "http://www.w3.org/TR/2001/REC-SVG-20010904/DTD/svg10.dtd">
<svg version="1.0" xmlns="http://www.w3.org/2000/svg" width="1200px" height="1200px" viewBox="0 0 12000 12000" preserveAspectRatio="xMidYMid meet">
<g id="layer101" fill="#070810" stroke="none">
 <path d="M7707 4973 c-4 -3 -7 -17 -7 -31 0 -13 -10 -53 -22 -89 -19 -54 -32 -73 -85 -120 -35 -32 -71 -71 -79 -87 -9 -18 -19 -76 -24 -138 -9 -111 -13 -123 -65 -197 -46 -66 -50 -81 -20 -81 73 0 144 131 146 270 1 73 18 141 37 148 9 3 12 -21 12 -95 0 -123 -15 -184 -61 -253 -22 -33 -34 -96 -20 -104 15 -9 47 13 63 44 7 14 16 27 20 30 21 16 48 137 50 222 0 51 3 77 5 58 3 -19 13 -66 24 -105 24 -88 24 -123 -1 -213 -11 -40 -18 -77 -15 -83 14 -21 36 -6 57 39 19 39 23 64 23 152 0 63 -6 132 -16 173 -19 76 -10 86 33 40 48 -52 53 -71 51 -193 -2 -131 2 -157 22 -140 23 19 45 101 45 166 0 71 -29 161 -61 190 -12 10 -25 26 -30 35 -18 34 30 7 85 -47 54 -54 92 -71 82 -36 -3 9 -8 29 -11 44 -8 33 -36 58 -102 94 l-52 27 1 76 c0 42 -5 89 -11 104 -6 16 -11 46 -11 68 0 36 -2 39 -28 39 -16 0 -32 -3 -35 -7z"/>
 </g>

</svg>